<svg width="54" height="54" viewBox="0 0 54 54" fill="none" xmlns="http://www.w3.org/2000/svg">
<circle cx="27" cy="27" r="27" fill="#85C6B2"/>
<path fill-rule="evenodd" clip-rule="evenodd" d="M31.325 29.899L36.705 35.279C36.8941 35.4682 37.0003 35.7248 37.0002 35.9923C37.0001 36.2599 36.8937 36.5164 36.7045 36.7055C36.5153 36.8946 36.2587 37.0008 35.9912 37.0007C35.7236 37.0006 35.4671 36.8942 35.278 36.705L29.898 31.325C28.2897 32.5707 26.2673 33.1569 24.2421 32.9643C22.217 32.7718 20.3412 31.815 18.9965 30.2886C17.6517 28.7622 16.939 26.7808 17.0033 24.7475C17.0675 22.7143 17.904 20.7818 19.3424 19.3434C20.7809 17.9049 22.7133 17.0685 24.7466 17.0042C26.7798 16.94 28.7612 17.6527 30.2876 18.9975C31.814 20.3422 32.7708 22.218 32.9634 24.2431C33.1559 26.2683 32.5697 28.2907 31.324 29.899H31.325ZM25 31C26.5913 31 28.1174 30.3678 29.2427 29.2426C30.3679 28.1174 31 26.5913 31 25C31 23.4087 30.3679 21.8826 29.2427 20.7573C28.1174 19.6321 26.5913 19 25 19C23.4087 19 21.8826 19.6321 20.7574 20.7573C19.6322 21.8826 19 23.4087 19 25C19 26.5913 19.6322 28.1174 20.7574 29.2426C21.8826 30.3678 23.4087 31 25 31Z" fill="#EFF0F2"/>
</svg>
