<svg width="44" height="44" viewBox="0 0 44 44" fill="none" xmlns="http://www.w3.org/2000/svg">
<path d="M22 3.66669C12.0615 3.66669 3.66663 12.0615 3.66663 22C3.66663 31.9385 12.0615 40.3334 22 40.3334C31.9385 40.3334 40.3333 31.9385 40.3333 22C40.3333 12.0615 31.9385 3.66669 22 3.66669ZM22 12.8334C25.1661 12.8334 27.5 15.1654 27.5 18.3334C27.5 21.5014 25.1661 23.8334 22 23.8334C18.8356 23.8334 16.5 21.5014 16.5 18.3334C16.5 15.1654 18.8356 12.8334 22 12.8334ZM12.639 30.7487C14.2835 28.3287 17.0261 26.7154 20.1666 26.7154H23.8333C26.9756 26.7154 29.7165 28.3287 31.361 30.7487C29.018 33.2567 25.6941 34.8334 22 34.8334C18.3058 34.8334 14.982 33.2567 12.639 30.7487Z" fill="#85C6B2"/>
</svg>
