<svg width="44" height="44" viewBox="0 0 44 44" fill="none" xmlns="http://www.w3.org/2000/svg">
<path d="M21.9998 41.7084C11.1282 41.7084 2.2915 32.8717 2.2915 22.0001C2.2915 11.1284 11.1282 2.29175 21.9998 2.29175C32.8715 2.29175 41.7082 11.1284 41.7082 22.0001C41.7082 32.8717 32.8715 41.7084 21.9998 41.7084ZM21.9998 5.04175C12.6498 5.04175 5.0415 12.6501 5.0415 22.0001C5.0415 31.3501 12.6498 38.9584 21.9998 38.9584C31.3498 38.9584 38.9582 31.3501 38.9582 22.0001C38.9582 12.6501 31.3498 5.04175 21.9998 5.04175Z" fill="#196085"/>
<path d="M28.8015 29.205C28.5632 29.205 28.3248 29.15 28.1048 29.0033L22.4215 25.6116C21.0098 24.7683 19.9648 22.9166 19.9648 21.285V13.7683C19.9648 13.0166 20.5882 12.3933 21.3398 12.3933C22.0915 12.3933 22.7148 13.0166 22.7148 13.7683V21.285C22.7148 21.945 23.2648 22.9166 23.8332 23.2466L29.5165 26.6383C30.1765 27.0233 30.3782 27.8666 29.9932 28.5266C29.7182 28.9666 29.2598 29.205 28.8015 29.205Z" fill="#196085"/>
</svg>
