<svg width="44" height="44" viewBox="0 0 44 44" fill="none" xmlns="http://www.w3.org/2000/svg">
<path d="M10.699 7.50757C11.6065 7.50757 13.2345 7.78807 13.2345 10.0224C13.2345 12.2568 11.623 13.1162 10.699 13.1162C9.77505 13.1162 8.35742 12.2389 8.35742 10.0224C8.35742 7.80594 9.9153 7.50757 10.699 7.50757ZM5.71467 10.3126C6.62217 10.3126 8.25017 10.5917 8.25017 12.8261C8.25017 15.0604 6.63867 15.9198 5.71467 15.9198C4.79067 15.9198 3.37305 15.0439 3.37305 12.8261C3.37305 10.6082 4.93092 10.3126 5.71467 10.3126ZM19.2502 10.0224C19.2502 7.78807 17.6222 7.50894 16.7147 7.50894C15.9309 7.50894 14.373 7.80457 14.373 10.0224C14.373 12.2403 15.7907 13.1162 16.7147 13.1162C17.6387 13.1162 19.2502 12.2568 19.2502 10.0224ZM21.5918 10.3126C22.4993 10.3126 24.1273 10.5917 24.1273 12.8261C24.1273 15.0604 22.5158 15.9198 21.5918 15.9198C20.6678 15.9198 19.2502 15.0439 19.2502 12.8261C19.2502 10.6082 20.808 10.3126 21.5918 10.3126ZM20.6032 21.2699C20.6032 17.2522 18.0044 13.7721 13.7502 13.7721C9.49592 13.7721 6.9398 17.1656 6.9398 21.2699C6.9398 24.6854 11.0112 24.6854 13.7405 24.6854H13.7502C16.7793 24.6854 20.6032 24.5782 20.6032 21.2699ZM22.2147 26.8772C23.1222 26.8772 24.7502 27.1563 24.7502 29.3907C24.7502 31.6251 23.1387 32.4844 22.2147 32.4844C21.2907 32.4844 19.873 31.6072 19.873 29.3907C19.873 27.1742 21.4309 26.8772 22.2147 26.8772ZM29.7345 26.5871C29.7345 24.3527 28.1065 24.0736 27.199 24.0736C26.4153 24.0736 24.8574 24.3692 24.8574 26.5871C24.8574 28.8049 26.275 29.6808 27.199 29.6808C28.123 29.6808 29.7345 28.8214 29.7345 26.5871ZM33.2147 24.0736C34.1222 24.0736 35.7502 24.3527 35.7502 26.5871C35.7502 28.8214 34.1387 29.6808 33.2147 29.6808C32.2907 29.6808 30.873 28.8036 30.873 26.5871C30.873 24.3706 32.4309 24.0736 33.2147 24.0736ZM40.6273 29.3907C40.6273 27.1563 38.9993 26.8772 38.0918 26.8772C37.308 26.8772 35.7502 27.1728 35.7502 29.3907C35.7502 31.6086 37.1678 32.4844 38.0918 32.4844C39.0158 32.4844 40.6273 31.6251 40.6273 29.3907ZM30.2502 30.3367C34.5044 30.3367 37.1032 33.8154 37.1032 37.8346C37.1032 41.1428 33.2807 41.2501 30.2502 41.2501H30.2392C27.5112 41.2501 23.4398 41.2501 23.4398 37.8346C23.4398 33.7302 25.9973 30.3367 30.2502 30.3367Z" fill="#196085"/>
</svg>
