<svg width="36" height="36" viewBox="0 0 36 36" fill="none" xmlns="http://www.w3.org/2000/svg">
<path fill-rule="evenodd" clip-rule="evenodd" d="M24.828 33.1995C22.668 33.12 16.5465 32.274 10.1355 25.8645C3.726 19.4535 2.8815 13.3335 2.8005 11.172C2.6805 7.87796 5.2035 4.67846 8.118 3.42896C8.46897 3.27741 8.8533 3.21971 9.2333 3.26152C9.61329 3.30333 9.97588 3.44322 10.2855 3.66746C12.6855 5.41646 14.3415 8.06246 15.7635 10.143C16.0764 10.6001 16.2102 11.1563 16.1393 11.7057C16.0685 12.255 15.7981 12.7591 15.3795 13.122L12.453 15.2955C12.3116 15.3976 12.2121 15.5475 12.1729 15.7174C12.1337 15.8874 12.1576 16.0658 12.24 16.2195C12.903 17.424 14.082 19.218 15.432 20.568C16.782 21.918 18.6615 23.175 19.95 23.913C20.1116 24.0036 20.3017 24.029 20.4814 23.9838C20.6611 23.9386 20.8166 23.8263 20.916 23.67L22.821 20.7705C23.1712 20.3052 23.6879 19.9936 24.2628 19.9007C24.8376 19.8079 25.4261 19.9411 25.905 20.2725C28.0155 21.7335 30.4785 23.361 32.2815 25.6695C32.5239 25.9813 32.6782 26.3526 32.728 26.7444C32.7779 27.1363 32.7216 27.5343 32.565 27.897C31.3095 30.8265 28.1325 33.321 24.828 33.1995Z" fill="#196085"/>
</svg>
