<svg width="29" height="27" viewBox="0 0 29 27" fill="none" xmlns="http://www.w3.org/2000/svg">
<path d="M25.0723 4.01536C24.4614 3.37643 23.7361 2.86959 22.9378 2.52379C22.1396 2.17799 21.2839 2 20.4199 2C19.5558 2 18.7001 2.17799 17.9019 2.52379C17.1036 2.86959 16.3783 3.37643 15.7674 4.01536L14.4997 5.34075L13.2319 4.01536C11.998 2.72538 10.3245 2.00067 8.57951 2.00067C6.83452 2.00067 5.16099 2.72538 3.92709 4.01536C2.6932 5.30535 2 7.05495 2 8.87927C2 10.7036 2.6932 12.4532 3.92709 13.7432L5.19485 15.0685L14.4997 24.7964L23.8045 15.0685L25.0723 13.7432C25.6834 13.1045 26.1682 12.3463 26.499 11.5117C26.8298 10.6772 27 9.78263 27 8.87927C27 7.9759 26.8298 7.08138 26.499 6.24681C26.1682 5.41225 25.6834 4.65399 25.0723 4.01536V4.01536Z" fill="#EF484B" stroke="#EF484B" stroke-width="2.5" stroke-linecap="round" stroke-linejoin="round"/>
</svg>
