<svg width="24" height="24" viewBox="0 0 24 24" fill="none" xmlns="http://www.w3.org/2000/svg">
<path d="M11.8632 1.5C6.27549 1.5 1.74805 6.19969 1.74805 12C1.74805 17.8003 6.27549 22.5 11.8632 22.5C17.451 22.5 21.9784 17.8003 21.9784 12C21.9784 6.19969 17.451 1.5 11.8632 1.5ZM8.02488 16.5886C7.96281 16.6985 7.87396 16.7895 7.76726 16.8524C7.66057 16.9154 7.53979 16.9481 7.41706 16.9472C7.29199 16.9483 7.16909 16.9133 7.06213 16.8459C6.9825 16.798 6.91276 16.7343 6.85692 16.6583C6.80109 16.5824 6.76025 16.4957 6.73675 16.4034C6.71326 16.311 6.70757 16.2147 6.72001 16.12C6.73245 16.0254 6.76278 15.9342 6.80925 15.8517L7.4997 14.6602C7.53459 14.5987 7.58437 14.5477 7.6441 14.5123C7.70383 14.477 7.77143 14.4585 7.84019 14.4586H7.94224C8.44303 14.4586 8.79345 14.7712 8.89551 15.0741L8.02488 16.5886ZM13.8705 14.2448L9.34888 14.25H6.34368C6.24913 14.2504 6.15548 14.2309 6.06842 14.1926C5.98136 14.1543 5.90269 14.0981 5.8372 14.0273C5.77171 13.9565 5.72075 13.8726 5.68742 13.7808C5.65409 13.6889 5.63907 13.591 5.6433 13.493C5.65775 13.0992 5.98875 12.8011 6.36581 12.8011H8.54419L11.1267 8.23781L10.2904 6.75891C10.1021 6.42188 10.1856 5.9775 10.5085 5.76562C10.5881 5.71219 10.6773 5.67601 10.7707 5.65927C10.8641 5.64253 10.9598 5.64557 11.0521 5.6682C11.1443 5.69084 11.2312 5.73261 11.3075 5.791C11.3838 5.84939 11.448 5.92319 11.4961 6.00797L11.9432 6.80062H11.9481L12.3956 6.00797C12.4438 5.92363 12.5078 5.85022 12.5839 5.79213C12.66 5.73403 12.7466 5.69244 12.8385 5.66982C12.9304 5.6472 13.0258 5.64403 13.1189 5.66049C13.212 5.67695 13.301 5.71271 13.3805 5.76562C13.7016 5.9775 13.7842 6.42188 13.5946 6.76031L12.7582 8.23922L11.9454 9.67781L10.1802 12.8025V12.8077H12.7817C13.1078 12.8077 13.5164 12.9895 13.6817 13.282L13.6962 13.3125C13.842 13.5698 13.9247 13.7466 13.9247 14.0039C13.9223 14.0875 13.9043 14.1698 13.8718 14.2463L13.8705 14.2448ZM17.3814 14.25H16.1572V14.2552L17.0522 15.8353C17.1485 16.0017 17.178 16.2007 17.1343 16.3895C17.0906 16.5782 16.9773 16.7416 16.8188 16.8445C16.7089 16.9141 16.5826 16.9509 16.4539 16.9509C16.3315 16.9509 16.2112 16.918 16.1047 16.8554C15.9982 16.7928 15.9091 16.7027 15.8461 16.5938L14.5234 14.2566L13.7016 12.8034L12.6413 10.9219C12.4877 10.6532 12.4042 10.3476 12.3991 10.0353C12.3939 9.72294 12.4673 9.41458 12.6119 9.14062C12.8215 8.75672 12.9818 8.65594 12.9818 8.65594L15.3403 12.7969H17.3683C17.7476 12.7969 18.0732 13.0997 18.0908 13.4883C18.0945 13.5871 18.0789 13.6856 18.0449 13.778C18.0109 13.8704 17.9593 13.9546 17.8932 14.0258C17.8271 14.0969 17.7478 14.1535 17.6601 14.192C17.5723 14.2305 17.478 14.2503 17.3828 14.25H17.3814Z" fill="#484848"/>
</svg>
