<svg width="23" height="22" viewBox="0 0 23 22" fill="none" xmlns="http://www.w3.org/2000/svg">
<path d="M2.9248 2.55633V19.443C2.92491 19.4797 2.93544 19.5155 2.95506 19.5459C2.97469 19.5764 3.00254 19.6001 3.03512 19.6142C3.0677 19.6283 3.10356 19.6321 3.13821 19.6251C3.17286 19.6181 3.20475 19.6007 3.22988 19.575L11.7003 11.0001L3.22988 2.42442C3.20475 2.39869 3.17286 2.38125 3.13821 2.37426C3.10356 2.36728 3.0677 2.37107 3.03512 2.38515C3.00254 2.39924 2.97469 2.423 2.95506 2.45345C2.93544 2.48391 2.92491 2.51969 2.9248 2.55633Z" fill="#484848"/>
<path d="M15.2516 7.47645L4.63073 1.40238L4.62411 1.39852C4.44115 1.29539 4.26729 1.55234 4.41714 1.70188L12.7427 9.96563L15.2516 7.47645Z" fill="#484848"/>
<path d="M4.41762 20.2981C4.26695 20.4476 4.4408 20.7045 4.62459 20.6014L4.63122 20.5975L15.2513 14.5235L12.7424 12.0334L4.41762 20.2981Z" fill="#484848"/>
<path d="M19.5388 9.92577L16.5729 8.23022L13.7842 11L16.5729 13.7685L19.5388 12.0742C20.3455 11.6114 20.3455 10.3885 19.5388 9.92577Z" fill="#484848"/>
</svg>
