<?xml version="1.0" encoding="UTF-8"?>
<svg version="1.1" xmlns="http://www.w3.org/2000/svg" width="507" height="492">
<path d="M0 0 C1.00160156 0.39421143 1.00160156 0.39421143 2.0234375 0.79638672 C22.44926937 8.8600656 39.82362504 20.4876072 57 34 C57.845625 34.65355469 58.69125 35.30710938 59.5625 35.98046875 C62.21546635 38.17851939 64.59276204 40.5362541 67 43 C67.81339844 43.80179688 68.62679688 44.60359375 69.46484375 45.4296875 C74.20362758 50.11606772 78.85994807 54.77046071 83 60 C83 60.66 83 61.32 83 62 C83.99 62.33 84.98 62.66 86 63 C87.796875 65.37109375 87.796875 65.37109375 89.75 68.4375 C92.29508171 72.38097825 94.87399022 76.25999315 97.625 80.0625 C111.8351438 100.40376202 121.69929691 125.60374975 126 150 C126.13535156 150.66016113 126.27070313 151.32032227 126.41015625 152.00048828 C131.90322587 178.96477936 130.95687372 209.25035752 125 236 C124.81808105 236.87414551 124.63616211 237.74829102 124.44873047 238.64892578 C118.87417879 265.22643533 106.78862125 290.00194497 91 312 C90.36819824 312.88896973 90.36819824 312.88896973 89.72363281 313.79589844 C84.51604903 321.08810705 84.51604903 321.08810705 82 324 C81.34 324 80.68 324 80 324 C79.62875 324.8353125 79.62875 324.8353125 79.25 325.6875 C76.63774187 330.52017755 73.23751432 333.60998855 69 337 C68.38898438 337.77988281 67.77796875 338.55976563 67.1484375 339.36328125 C59.9846507 348.15520141 49.26089935 354.55360509 40 361 C39.08089844 361.64839844 38.16179687 362.29679687 37.21484375 362.96484375 C36.42207031 363.51269531 35.62929688 364.06054688 34.8125 364.625 C34.13832031 365.09164063 33.46414063 365.55828125 32.76953125 366.0390625 C31 367 31 367 28 367 C28 367.66 28 368.32 28 369 C21.44286122 372.33351748 14.85224857 375.57549982 8.1875 378.6875 C7.5783374 378.97246338 6.9691748 379.25742676 6.34155273 379.55102539 C-0.34677046 382.65868527 -6.9130036 385.41922343 -14 387.4375 C-14.7412915 387.65067871 -15.48258301 387.86385742 -16.24633789 388.08349609 C-17.76780106 388.51875628 -19.2900181 388.95139016 -20.81298828 389.38134766 C-22.81399644 389.94738412 -24.81149283 390.52579741 -26.80859375 391.10546875 C-66.45133385 402.24298777 -110.99814072 402.00318855 -151 393 C-152.09828125 392.76410156 -153.1965625 392.52820313 -154.328125 392.28515625 C-174.50463723 387.62691777 -193.67011293 379.47006496 -212 370 C-212.66 369.67 -213.32 369.34 -214 369 C-214 368.34 -214 367.68 -214 367 C-214.52722656 366.91621094 -215.05445313 366.83242188 -215.59765625 366.74609375 C-218.88806391 365.72419479 -221.57887255 363.93498579 -224.4375 362.0625 C-225.05294678 361.66135986 -225.66839355 361.26021973 -226.30249023 360.84692383 C-240.66199637 351.35903215 -255.67011459 339.91881841 -266 326 C-266 325.34 -266 324.68 -266 324 C-266.99 323.67 -267.98 323.34 -269 323 C-270.39111328 321.47216797 -270.39111328 321.47216797 -271.8203125 319.4921875 C-272.61659058 318.39463135 -272.61659058 318.39463135 -273.42895508 317.27490234 C-273.9886499 316.48293457 -274.54834473 315.6909668 -275.125 314.875 C-275.70467529 314.06111816 -276.28435059 313.24723633 -276.8815918 312.40869141 C-309.26883597 266.43593794 -322.02513885 210.56640971 -312.91015625 154.9140625 C-312.61459597 153.27461165 -312.31153819 151.63648982 -312 150 C-311.85546387 149.2378418 -311.71092773 148.47568359 -311.56201172 147.69042969 C-310.58146386 142.73231059 -309.38052355 137.86124209 -308 133 C-307.70101807 131.94449951 -307.70101807 131.94449951 -307.39599609 130.86767578 C-298.46116535 100.21137045 -281.46634703 72.4799632 -259.46289062 49.53027344 C-258.09290909 48.09718861 -256.74106166 46.64682975 -255.390625 45.1953125 C-247.67711171 37.13118497 -238.98037315 30.58081385 -230 24 C-228.94167969 23.21496094 -227.88335937 22.42992187 -226.79296875 21.62109375 C-220.41679293 17 -220.41679293 17 -217 17 C-217 16.34 -217 15.68 -217 15 C-216.15824219 14.58105469 -215.31648438 14.16210938 -214.44921875 13.73046875 C-212.15385243 12.57888633 -209.86469927 11.41483357 -207.58203125 10.23828125 C-189.62646956 1.01856981 -171.55205288 -5.905604 -152 -11 C-151.31550781 -11.17901855 -150.63101563 -11.35803711 -149.92578125 -11.54248047 C-145.65360146 -12.61863422 -141.35765862 -13.37881581 -137 -14 C-135.59548584 -14.20085205 -135.59548584 -14.20085205 -134.16259766 -14.40576172 C-88.74088367 -20.61709901 -42.73908088 -17.24543572 0 0 Z M-183 102 C-183.74121094 102.65613281 -184.48242188 103.31226563 -185.24609375 103.98828125 C-191.03190123 109.42484482 -195.42311543 115.85837493 -199.88525391 122.38134766 C-200.83543322 123.76104298 -201.81159028 125.12278829 -202.79296875 126.48046875 C-206.28630961 131.41065932 -208.63090655 136.47653201 -210.84375 142.09375 C-211.84901795 144.62050458 -212.95251081 147.04843169 -214.125 149.5 C-218.96809067 160.45553979 -219.88700593 172.21535691 -221 184 C-217.06924356 183.42547254 -217.06924356 183.42547254 -214 181 C-213.65273572 178.26047065 -213.39708768 175.5625958 -213.1875 172.8125 C-211.57895351 155.97234612 -204.96833748 141.59318747 -195 128 C-195 127.34 -195 126.68 -195 126 C-194.34 126 -193.68 126 -193 126 C-191.32278885 124.15348336 -191.32278885 124.15348336 -189.625 121.8125 C-188.99722656 120.98621094 -188.36945313 120.15992188 -187.72265625 119.30859375 C-186.49804818 117.66745232 -185.2785219 116.02251354 -184.0625 114.375 C-178.40380193 107.85892344 -171.31270149 102.92905887 -164.34375 97.91796875 C-163.5703125 97.28503906 -162.796875 96.65210938 -162 96 C-162 95.34 -162 94.68 -162 94 C-161.2575 93.71125 -160.515 93.4225 -159.75 93.125 C-157.43260203 92.17697356 -155.22082885 91.15154089 -153 90 C-153 89.34 -153 88.68 -153 88 C-152.195625 87.773125 -151.39125 87.54625 -150.5625 87.3125 C-146.91947863 85.97033423 -143.79827657 84.29439696 -140.44921875 82.35546875 C-137.08505479 80.49364276 -133.58693152 78.94889018 -130.06640625 77.40625 C-127.44720858 75.62380924 -126.90874085 73.97947821 -126 71 C-146.8311642 71 -168.40750829 88.98403573 -183 102 Z M-111 196.75 C-112.010625 197.26046875 -113.02125 197.7709375 -114.0625 198.296875 C-116.97778676 199.98712105 -119.5009874 201.7398636 -122 204 C-122 204.66 -122 205.32 -122 206 C-122.99 206.33 -123.98 206.66 -125 207 C-132.65795932 216.1137693 -134.52543627 224.32363837 -134 236 C-130.99634696 235.92282004 -130.99634696 235.92282004 -128 234 C-126.4708231 230.10175737 -125.73379694 226.11243034 -125 222 C-124.66840205 220.3329872 -124.3357021 218.66619116 -124 217 C-123.34 217 -122.68 217 -122 217 C-120.97862543 215.34634594 -119.98387706 213.67623498 -119 212 C-114.64867677 206.0773656 -110.43860634 203.46459159 -103.625 200.5625 C-100.75284475 199.24318712 -100.75284475 199.24318712 -100.125 196.3125 C-100.08375 195.549375 -100.0425 194.78625 -100 194 C-104.40292958 193.6438807 -107.10519702 194.74298418 -111 196.75 Z " fill="#196184" transform="translate(351,77)"/>
<path d="M0 0 C0.71653748 -0.00133942 1.43307495 -0.00267883 2.17132568 -0.00405884 C12.6328643 0.0001887 22.3306154 0.65431792 32.5 3.25 C35.08282007 3.75264462 37.66614553 4.25270011 40.25 4.75 C44.5741732 5.59472221 47.07719954 6.53512815 50.5 9.25 C52.27180136 10.02619162 54.06646201 10.75124654 55.875 11.4375 C67.41363853 16.13165989 77.63793449 22.68249827 87.5 30.25 C88.32628906 30.87132812 89.15257812 31.49265625 90.00390625 32.1328125 C96.13439972 36.79885531 101.35231008 42.01024514 106.5625 47.6875 C107.81740234 49.04681641 107.81740234 49.04681641 109.09765625 50.43359375 C111.50951354 53.26115327 113.49109971 56.12462205 115.5 59.25 C115.96341797 59.9188623 116.42683594 60.58772461 116.90429688 61.27685547 C120.66475936 66.73384845 123.74081545 72.32040221 126.5625 78.3125 C126.9944165 79.22789551 127.42633301 80.14329102 127.87133789 81.08642578 C143.90635278 115.82138722 144.6345364 154.77260444 131.7265625 190.546875 C124.35752978 209.95263922 112.68325793 227.1461206 97.5 241.25 C96.65308594 242.11109375 95.80617188 242.9721875 94.93359375 243.859375 C90.31854567 248.39293748 88.11381819 249.62510039 81.47142029 249.6242218 C80.40978695 249.63018341 80.40978695 249.63018341 79.32670647 249.63626546 C76.95514879 249.64588999 74.58418743 249.63406986 72.21264648 249.62231445 C70.51250994 249.62474235 68.81237482 249.62846165 67.11224365 249.63337708 C62.49458163 249.64278927 57.87713145 249.63335826 53.25948596 249.62004495 C48.43088924 249.60873791 43.60230306 249.61283733 38.7736969 249.61479187 C30.66558364 249.615675 22.55755396 249.60458983 14.44946289 249.58618164 C5.06883783 249.56500661 -4.31166484 249.56150555 -13.69230896 249.5677436 C-22.70943418 249.5734334 -31.72651619 249.56779659 -40.74363518 249.55657005 C-44.5844903 249.55191971 -48.42531904 249.55105209 -52.26617622 249.5531559 C-56.78630224 249.55503619 -61.30630324 249.5469549 -65.82640076 249.5310955 C-67.48768535 249.52684442 -69.1489826 249.52600761 -70.81027031 249.52878571 C-73.07311981 249.53199633 -75.33559313 249.52295433 -77.59840393 249.51069641 C-78.86620477 249.50864354 -80.1340056 249.50659067 -81.44022465 249.50447559 C-84.5 249.25 -84.5 249.25 -87.5 247.25 C-87.5 246.59 -87.5 245.93 -87.5 245.25 C-90.47 244.26 -90.47 244.26 -93.5 243.25 C-93.5 242.26 -93.5 241.27 -93.5 240.25 C-94.056875 240.023125 -94.61375 239.79625 -95.1875 239.5625 C-100.81214844 236.37013197 -104.75278023 230.66932905 -108.75 225.6875 C-109.29140625 225.02814453 -109.8328125 224.36878906 -110.390625 223.68945312 C-110.90625 223.04814453 -111.421875 222.40683594 -111.953125 221.74609375 C-112.65163574 220.88262329 -112.65163574 220.88262329 -113.36425781 220.00170898 C-114.60024056 218.09539424 -115.07546245 216.46909061 -115.5 214.25 C-116.16 214.25 -116.82 214.25 -117.5 214.25 C-118.04269531 213.08082031 -118.58539063 211.91164063 -119.14453125 210.70703125 C-119.86704494 209.15878763 -120.58970913 207.61061424 -121.3125 206.0625 C-121.84713867 204.90911133 -121.84713867 204.90911133 -122.39257812 203.73242188 C-123.83803772 200.64258623 -125.23808742 197.66074132 -127.07421875 194.78125 C-129.18876714 191.02720244 -130.28594528 187.05706587 -131.5 182.9375 C-131.7475 182.14021484 -131.995 181.34292969 -132.25 180.52148438 C-136.32528807 166.88412717 -138.06243639 153.68248984 -137.9375 139.5 C-137.93445862 138.76120605 -137.93141724 138.02241211 -137.92828369 137.26123047 C-137.85523277 125.21204847 -136.85377412 113.85921811 -133.5 102.25 C-133.30164551 101.51539551 -133.10329102 100.78079102 -132.89892578 100.02392578 C-129.03978425 85.94742307 -122.59671794 72.39507691 -114.5 60.25 C-113.84 60.25 -113.18 60.25 -112.5 60.25 C-111.84 58.27 -111.18 56.29 -110.5 54.25 C-109.84 54.25 -109.18 54.25 -108.5 54.25 C-108.23574219 53.66863281 -107.97148437 53.08726562 -107.69921875 52.48828125 C-99.18279112 36.59279906 -77.43444633 19.69321489 -60.5 14.25 C-59.75363281 13.79238281 -59.00726563 13.33476562 -58.23828125 12.86328125 C-55.01379571 10.96354869 -51.68281998 9.61341227 -48.1875 8.3125 C-47.14722656 7.9244519 -47.14722656 7.9244519 -46.0859375 7.52856445 C-30.88106168 2.01337245 -16.11168289 0.01774364 0 0 Z M-87.5 47.25 C-88.24121094 47.90613281 -88.98242188 48.56226563 -89.74609375 49.23828125 C-95.53190123 54.67484482 -99.92311543 61.10837493 -104.38525391 67.63134766 C-105.33543322 69.01104298 -106.31159028 70.37278829 -107.29296875 71.73046875 C-110.78630961 76.66065932 -113.13090655 81.72653201 -115.34375 87.34375 C-116.34901795 89.87050458 -117.45251081 92.29843169 -118.625 94.75 C-123.46809067 105.70553979 -124.38700593 117.46535691 -125.5 129.25 C-121.56924356 128.67547254 -121.56924356 128.67547254 -118.5 126.25 C-118.15273572 123.51047065 -117.89708768 120.8125958 -117.6875 118.0625 C-116.07895351 101.22234612 -109.46833748 86.84318747 -99.5 73.25 C-99.5 72.59 -99.5 71.93 -99.5 71.25 C-98.84 71.25 -98.18 71.25 -97.5 71.25 C-95.82278885 69.40348336 -95.82278885 69.40348336 -94.125 67.0625 C-93.49722656 66.23621094 -92.86945313 65.40992188 -92.22265625 64.55859375 C-90.99804818 62.91745232 -89.7785219 61.27251354 -88.5625 59.625 C-82.90380193 53.10892344 -75.81270149 48.17905887 -68.84375 43.16796875 C-68.0703125 42.53503906 -67.296875 41.90210938 -66.5 41.25 C-66.5 40.59 -66.5 39.93 -66.5 39.25 C-65.7575 38.96125 -65.015 38.6725 -64.25 38.375 C-61.93260203 37.42697356 -59.72082885 36.40154089 -57.5 35.25 C-57.5 34.59 -57.5 33.93 -57.5 33.25 C-56.695625 33.023125 -55.89125 32.79625 -55.0625 32.5625 C-51.41947863 31.22033423 -48.29827657 29.54439696 -44.94921875 27.60546875 C-41.58505479 25.74364276 -38.08693152 24.19889018 -34.56640625 22.65625 C-31.94720858 20.87380924 -31.40874085 19.22947821 -30.5 16.25 C-51.3311642 16.25 -72.90750829 34.23403573 -87.5 47.25 Z M-15.5 142 C-16.510625 142.51046875 -17.52125 143.0209375 -18.5625 143.546875 C-21.47778676 145.23712105 -24.0009874 146.9898636 -26.5 149.25 C-26.5 149.91 -26.5 150.57 -26.5 151.25 C-27.49 151.58 -28.48 151.91 -29.5 152.25 C-37.15795932 161.3637693 -39.02543627 169.57363837 -38.5 181.25 C-35.49634696 181.17282004 -35.49634696 181.17282004 -32.5 179.25 C-30.9708231 175.35175737 -30.23379694 171.36243034 -29.5 167.25 C-29.16840205 165.5829872 -28.8357021 163.91619116 -28.5 162.25 C-27.84 162.25 -27.18 162.25 -26.5 162.25 C-25.47862543 160.59634594 -24.48387706 158.92623498 -23.5 157.25 C-19.14867677 151.3273656 -14.93860634 148.71459159 -8.125 145.8125 C-5.25284475 144.49318712 -5.25284475 144.49318712 -4.625 141.5625 C-4.58375 140.799375 -4.5425 140.03625 -4.5 139.25 C-8.90292958 138.8938807 -11.60519702 139.99298418 -15.5 142 Z " fill="#0F0F0E" transform="translate(255.5,131.75)"/>
<path d="M0 0 C4.57082294 1.86218712 7.45878841 5.23766305 10.63696289 8.87182617 C18.43078591 17.75063165 26.87683731 25.98605074 35.25 34.3125 C36.80492218 35.8623948 38.35961142 37.41252333 39.9140625 38.96289062 C42.75930805 41.80002859 45.60585786 44.6358427 48.45410156 47.4699707 C49.06446259 48.07768814 49.67482361 48.68540558 50.30368042 49.3115387 C51.81410096 50.81496215 53.3256712 52.31723034 54.83740234 53.81933594 C57.879481 56.88682821 60.68570469 60.14669029 63.5234375 63.40234375 C65.73683265 65.92579753 65.73683265 65.92579753 67.74516392 67.12914467 C70.87056276 69.24012135 72.71695483 70.84816561 73.63601494 74.5882225 C73.86291946 77.88833179 73.86549696 81.12381818 73.79467773 84.43115234 C73.79569992 85.68048553 73.79672211 86.92981873 73.79777527 88.2170105 C73.79374237 91.63094177 73.75872486 95.04188497 73.70975757 98.45528746 C73.66590243 102.02663019 73.66187901 105.59801573 73.65357971 109.16958618 C73.63185053 115.92713482 73.57444636 122.68388769 73.50413328 129.44108641 C73.41114859 138.57599341 73.37345401 147.7111191 73.33261776 156.84638023 C73.26685967 171.23151584 73.1273906 185.61497245 73 200 C53.86 200 34.72 200 15 200 C15 188.12 15 176.24 15 164 C18.3 163.67 21.6 163.34 25 163 C34.98416529 159.40669518 41.3493322 152.88130434 45.8125 143.4375 C48.8139566 136.5433693 50.34738052 130.22838247 50.3125 122.75 C50.32861328 122.04359375 50.34472656 121.3371875 50.36132812 120.609375 C50.41178637 116.55960425 50.41178637 116.55960425 48.48046875 113.140625 C47.74763672 112.57601562 47.74763672 112.57601562 47 112 C47 111.34 47 110.68 47 110 C46.42556152 110.05236816 45.85112305 110.10473633 45.25927734 110.15869141 C32.71202686 111.157314 32.71202686 111.157314 27 110 C24.31654997 107.69607285 23.50952251 105.86547505 22.203125 102.61328125 C19.55646825 96.86453655 12.62008949 93.95454665 7.0012207 91.61303711 C3.16070149 90.43656477 -0.69893328 90.47043822 -4.6875 90.5 C-5.57018555 90.50499512 -6.45287109 90.50999023 -7.36230469 90.51513672 C-18.42338427 90.80899098 -26.66156729 94.9208408 -35 102 C-35.96808594 102.75023437 -36.93617188 103.50046875 -37.93359375 104.2734375 C-41.18985027 106.99681506 -43.43848598 110.04713546 -45.6875 113.625 C-46.07542725 114.24181641 -46.46335449 114.85863281 -46.86303711 115.49414062 C-52.78523506 125.26469369 -53.74163904 134.67314919 -53 146 C-52.61166454 147.54357239 -52.21688347 149.08555395 -51.8125 150.625 C-51.34959737 154.04921125 -51.97476005 154.96545609 -54.06640625 157.828125 C-56.42987805 160.48606354 -58.95867183 162.96853531 -61.49560547 165.45947266 C-64.61207239 168.65079143 -67.27438911 172.21842801 -70.02734375 175.72265625 C-71.88461385 177.86679183 -73.71506038 179.34700803 -76 181 C-76.0436823 174.54308429 -76.07345011 168.0866688 -76.04394531 161.62963867 C-76.04004791 160.75914383 -76.03615051 159.88864899 -76.03213501 158.99177551 C-76.02349541 157.07753855 -76.01450547 155.16330315 -76.00521851 153.24906921 C-75.98145275 146.16225017 -76.03672617 139.078932 -76.12365246 131.99284935 C-76.1993781 125.54933644 -76.22709523 119.10641347 -76.22899342 112.66246986 C-76.23220482 108.5873671 -76.2572321 104.51488391 -76.33279419 100.44042969 C-76.40461621 96.52804052 -76.4179754 92.61939841 -76.39077187 88.70648766 C-76.39067548 87.25071938 -76.41106064 85.79477632 -76.45393944 84.33963966 C-76.62779771 78.09119806 -76.71534543 72.53696722 -72.36651611 67.72488403 C-69.43777536 64.88297873 -66.25390225 62.45671916 -63 60 C-61.73093077 58.80123247 -60.47800621 57.5841951 -59.265625 56.328125 C-58.75894287 55.81306396 -58.25226074 55.29800293 -57.73022461 54.76733398 C-57.24175049 54.26661377 -56.75327637 53.76589355 -56.25 53.25 C-52.32718169 49.27610786 -48.35124121 45.48382183 -44.08984375 41.87109375 C-40.72580915 38.8591824 -37.59599226 35.61576911 -34.42382812 32.40429688 C-31.09401668 29.0492277 -27.6605969 25.90266971 -24.05859375 22.83984375 C-21.43501536 20.49505167 -18.9700725 18.00371898 -16.5 15.5 C-12.68076716 11.63833124 -8.79922534 7.94849605 -4.65625 4.4375 C-3.02723284 3.02363605 -1.50628283 1.54302144 0 0 Z " fill="#E3E0CF" transform="translate(259,169)"/>
<path d="M0 0 C0.86882812 0.47179687 1.73765625 0.94359375 2.6328125 1.4296875 C9.93489566 5.58553547 16.43670773 10.78721479 23 16 C23.84949219 16.65742188 24.69898438 17.31484375 25.57421875 17.9921875 C49.70918165 37.96863022 63.676652 69.36860543 67.73828125 99.88671875 C68.02077153 103.24708823 68 106.62777761 68 110 C54.14 110 40.28 110 26 110 C26 105.71 26 101.42 26 97 C30.17668792 99.08834396 31.67128755 100.79578185 34.4375 104.34375 C36.18302748 106.19400913 37.62995488 107.09490403 40 108 C42.68993053 107.69621948 42.68993053 107.69621948 45 107 C46.1344095 104.39865016 46.1344095 104.39865016 46 101 C40.66816 92.73077556 31.85229724 85.77733012 24.875 78.875 C22.36942829 76.39619858 19.86731484 73.91397872 17.3671875 71.4296875 C16.52013748 70.59508499 16.52013748 70.59508499 15.65597534 69.74362183 C12.20895415 66.31778009 9.07542755 62.76285255 6 59 C3.48393905 56.35491029 0.97082234 53.97653101 -1.875 51.6875 C-4.17003358 49.81000703 -6.06322299 47.83270961 -7.96875 45.5625 C-12.89931858 39.86424747 -18.27819118 34.61452677 -23.625 29.3125 C-24.65909041 28.28344047 -25.69294602 27.25414493 -26.7265625 26.22460938 C-28.62697857 24.33227605 -30.528976 22.4415879 -32.43212891 20.55200195 C-36.56132506 16.44832375 -40.63484704 12.35510192 -44.5 8 C-45.66982422 6.70449219 -45.66982422 6.70449219 -46.86328125 5.3828125 C-48.08681355 4.01836149 -49.29987077 2.64395291 -50.48046875 1.2421875 C-52.47779844 -1.02016005 -53.72332829 -1.94625801 -56.71484375 -2.52734375 C-61.56821744 -1.74826474 -63.64407194 1.03312745 -66.875 4.5625 C-68.11404126 5.86113703 -69.35491056 7.15803252 -70.59765625 8.453125 C-71.18691895 9.07380859 -71.77618164 9.69449219 -72.38330078 10.33398438 C-74.81975266 12.84475871 -77.44842127 15.0846583 -80.12109375 17.3359375 C-83.2906405 20.14306206 -86.18916254 23.22179157 -89.1171875 26.27734375 C-91 28 -91 28 -93 28 C-93.33 28.99 -93.66 29.98 -94 31 C-95.4609375 32.4375 -95.4609375 32.4375 -97.375 34 C-101.44975502 37.44674618 -105.18512289 41.15274147 -108.93115234 44.95117188 C-112.13254245 48.17801375 -115.44984352 51.17855513 -118.90625 54.125 C-121.53985556 56.48345274 -124.01826218 58.9844568 -126.5 61.5 C-129.55337951 64.59491502 -132.62323685 67.61934277 -135.9375 70.4375 C-140.03717322 73.93106137 -143.7743086 77.74636959 -147.5559082 81.57543945 C-151.06537651 85.11178736 -154.6749518 88.47116165 -158.4765625 91.6953125 C-159.69958301 92.74271981 -160.86139532 93.86139532 -162 95 C-162.23779528 98.0913386 -161.98965019 100.03104944 -161 103 C-156.39699709 102.81587988 -153.8388698 102.24449301 -150.6875 98.9375 C-149.800625 97.968125 -148.91375 96.99875 -148 96 C-147.34 96 -146.68 96 -146 96 C-146 95.34 -146 94.68 -146 94 C-145.34 94 -144.68 94 -144 94 C-144 99.61 -144 105.22 -144 111 C-158.52 111 -173.04 111 -188 111 C-188 107.04 -188 103.08 -188 99 C-187.67 100.32 -187.34 101.64 -187 103 C-183.75016865 101.91215032 -183.75016865 101.91215032 -181 100 C-180.8046063 98.09278758 -180.61507812 96.184779 -180.45629883 94.27416992 C-178.92643515 76.48248903 -172.58899937 58.88527169 -161 45 C-160.34 45 -159.68 45 -159 45 C-158.7628125 44.45859375 -158.525625 43.9171875 -158.28125 43.359375 C-156.65652243 40.36749863 -154.6498123 37.88840601 -152.5 35.25 C-151.30890625 33.77273437 -151.30890625 33.77273437 -150.09375 32.265625 C-149.4028125 31.51796875 -148.711875 30.7703125 -148 30 C-147.34 30 -146.68 30 -146 30 C-145.67 29.01 -145.34 28.02 -145 27 C-143.64892578 25.66552734 -143.64892578 25.66552734 -141.9453125 24.3359375 C-141.33042969 23.85382813 -140.71554688 23.37171875 -140.08203125 22.875 C-139.43621094 22.38 -138.79039062 21.885 -138.125 21.375 C-137.48691406 20.87226563 -136.84882813 20.36953125 -136.19140625 19.8515625 C-133.41652906 17.69654305 -131.37044325 16.12348108 -128 15 C-128 14.34 -128 13.68 -128 13 C-122.70588235 9 -122.70588235 9 -119 9 C-119 8.34 -119 7.68 -119 7 C-112.08258413 2.1640408 -104.38180741 -1.3123655 -96.6171875 -4.54296875 C-93.81168899 -6.10483583 -93.03479033 -7.01699329 -92 -10 C-92.99 -10.33 -93.98 -10.66 -95 -11 C-62.40806285 -18.30308008 -29.53308526 -16.42363594 0 0 Z " fill="#F8C7A9" transform="translate(317,158)"/>
<path d="M0 0 C7.08179266 -0.81365277 11.83975761 0.19753914 17.8046875 4.15234375 C21.15543472 6.97245662 23.03996394 10.13570127 25 14 C25.598125 14.94875 26.19625 15.8975 26.8125 16.875 C28 19 28 19 28 21 C34.27 21 40.54 21 47 21 C47 30.41519704 44.42279555 39.69330942 37.66015625 46.62890625 C34.05909577 49.60295855 30.52661927 51.94307444 25.74609375 52.05078125 C20.47565261 51.47565261 20.47565261 51.47565261 19 50 C16.54190002 49.7499227 16.54190002 49.7499227 14 50 C11.55967107 52.44032893 11.71508276 53.18278914 11.58935547 56.54150391 C11.5489917 57.49549072 11.50862793 58.44947754 11.46704102 59.43237305 C11.43408936 60.43695557 11.4011377 61.44153809 11.3671875 62.4765625 C11.32988525 63.39848389 11.29258301 64.32040527 11.25415039 65.27026367 C11.11732693 68.72144436 10.99717504 72.1732697 10.875 75.625 C10.58625 83.33875 10.2975 91.0525 10 99 C-16.07 99 -42.14 99 -69 99 C-62.32116788 90.09489051 -62.32116788 90.09489051 -58.6875 86.1875 C-53.91034695 80.95921614 -49.45323969 75.50410089 -45 70 C-43.34120892 67.99321079 -41.67209535 65.99572671 -40 64 C-37.11915511 64.44320691 -35.63788933 65.24945402 -33.1875 66.9375 C-26.66581417 71.15741436 -19.60893413 72.00199956 -12 71 C-4.84682145 68.72721703 -0.74122141 65.4302243 3 59 C3.4125 58.319375 3.825 57.63875 4.25 56.9375 C6.20950632 51.875442 6.18198446 46.44219956 6.23828125 41.08203125 C6.25038887 39.97344002 6.25038887 39.97344002 6.26274109 38.842453 C6.27649496 37.29025565 6.28725549 35.73802915 6.29516602 34.18579102 C6.30676189 32.59813581 6.32733172 31.01052181 6.35668945 29.4230957 C6.39919029 27.12164004 6.41550052 24.82132955 6.42578125 22.51953125 C6.45204338 21.45542778 6.45204338 21.45542778 6.47883606 20.36982727 C6.46443603 17.11574278 6.4109864 15.43905851 4.14135742 13.0144043 C1.35413009 11.69403837 -0.11168304 12.06324855 -3 13 C-5.02655216 15.02655216 -4.18502724 19.19350761 -4.2109375 21.98046875 C-4.23902269 23.63607731 -4.26768725 25.29167613 -4.296875 26.94726562 C-4.33803141 29.5629024 -4.37490755 32.17836049 -4.40136719 34.79418945 C-4.42909206 37.31500187 -4.47498194 39.8349807 -4.5234375 42.35546875 C-4.52669037 43.13069382 -4.52994324 43.90591888 -4.53329468 44.70463562 C-4.64134664 49.51215982 -5.38189066 52.82174154 -8 57 C-12.02274084 60.63962267 -15.44741954 61.76594655 -20.7578125 61.515625 C-26.0815237 60.29135692 -29.12472763 56.1056072 -32.375 52 C-34.05074293 48.90632075 -34.66827847 46.48307603 -35 43 C-34.20980469 42.78988281 -33.41960937 42.57976562 -32.60546875 42.36328125 C-29.76292735 41.23351209 -29.76292735 41.23351209 -28.92578125 38.35546875 C-28.72339844 37.31003906 -28.52101562 36.26460938 -28.3125 35.1875 C-27.51449641 31.24643934 -26.60469672 27.69421671 -25 24 C-24.34 24 -23.68 24 -23 24 C-22.89945313 23.4225 -22.79890625 22.845 -22.6953125 22.25 C-21.03771215 16.88607976 -16.13634757 12.40245275 -11.375 9.625 C-8 8 -8 8 -5.25 7.125 C-2.0280047 5.51400235 -1.33847818 3.24052612 0 0 Z " fill="#ACD4C6" transform="translate(252,270)"/>
<path d="M0 0 C0.71653748 -0.00133942 1.43307495 -0.00267883 2.17132568 -0.00405884 C12.6328643 0.0001887 22.3306154 0.65431792 32.5 3.25 C35.08282007 3.75264462 37.66614553 4.25270011 40.25 4.75 C44.5741732 5.59472221 47.07719954 6.53512815 50.5 9.25 C52.27180136 10.02619162 54.06646201 10.75124654 55.875 11.4375 C60.80691028 13.43086423 65.39780565 15.72949619 70 18.375 C70.58700684 18.71168701 71.17401367 19.04837402 71.77880859 19.39526367 C80.18606748 24.30820245 80.18606748 24.30820245 81.5 28.25 C82.49 28.58 83.48 28.91 84.5 29.25 C84.83 31.23 85.16 33.21 85.5 35.25 C84.84 35.25 84.18 35.25 83.5 35.25 C83.5 36.24 83.5 37.23 83.5 38.25 C84.16 38.58 84.82 38.91 85.5 39.25 C86.125 41.8125 86.125 41.8125 86.5 44.25 C86.07332031 43.92128906 85.64664063 43.59257812 85.20703125 43.25390625 C71.18363701 32.58456094 57.43158697 23.64475392 40.5 18.25 C39.41074219 17.90066406 38.32148438 17.55132812 37.19921875 17.19140625 C16.58793191 10.93236142 -4.92502061 10.35702272 -26.015625 14.59375 C-29.5 15.25 -29.5 15.25 -33.5 15.25 C-33.5 15.91 -33.5 16.57 -33.5 17.25 C-34.2528125 17.4459375 -35.005625 17.641875 -35.78125 17.84375 C-55.69254245 23.44984205 -72.17149178 34.61547787 -87.5 48.25 C-88.16773438 48.83265625 -88.83546875 49.4153125 -89.5234375 50.015625 C-95.02611699 55.13079185 -99.13401493 61.45443945 -103.36914062 67.61523438 C-104.32747874 69.00060398 -105.30965514 70.36943623 -106.296875 71.734375 C-110.39425095 77.52139052 -112.90172834 83.68045694 -115.5 90.25 C-116.80621344 93.26237496 -118.14760474 96.25810882 -119.5 99.25 C-119.78875 98.63125 -120.0775 98.0125 -120.375 97.375 C-121.43720042 95.11674235 -121.43720042 95.11674235 -123.5 93.25 C-124.16 94.24 -124.82 95.23 -125.5 96.25 C-126.49 96.25 -127.48 96.25 -128.5 96.25 C-129.985 101.2 -129.985 101.2 -131.5 106.25 C-132.16 106.25 -132.82 106.25 -133.5 106.25 C-133.45875 107.36375 -133.4175 108.4775 -133.375 109.625 C-133.36430962 112.72788189 -133.71913121 115.34950313 -134.5 118.34375 C-136.21271855 126.56692666 -135.70938757 135.01903835 -135.625 143.375 C-135.61495032 145.11197401 -135.60582798 146.84895364 -135.59765625 148.5859375 C-135.57579974 152.8074325 -135.54137951 157.02865307 -135.5 161.25 C-135.83 161.25 -136.16 161.25 -136.5 161.25 C-140.76994552 143.2182371 -138.58771627 119.86132554 -133.5 102.25 C-133.30164551 101.51539551 -133.10329102 100.78079102 -132.89892578 100.02392578 C-129.03978425 85.94742307 -122.59671794 72.39507691 -114.5 60.25 C-113.84 60.25 -113.18 60.25 -112.5 60.25 C-111.84 58.27 -111.18 56.29 -110.5 54.25 C-109.84 54.25 -109.18 54.25 -108.5 54.25 C-108.23574219 53.66863281 -107.97148437 53.08726562 -107.69921875 52.48828125 C-99.18279112 36.59279906 -77.43444633 19.69321489 -60.5 14.25 C-59.75363281 13.79238281 -59.00726563 13.33476562 -58.23828125 12.86328125 C-55.01379571 10.96354869 -51.68281998 9.61341227 -48.1875 8.3125 C-47.14722656 7.9244519 -47.14722656 7.9244519 -46.0859375 7.52856445 C-30.88106168 2.01337245 -16.11168289 0.01774364 0 0 Z " fill="#0F0E0E" transform="translate(255.5,131.75)"/>
<path d="M0 0 C4.74041976 3.38127843 8.72196849 7.63687192 10.67578125 13.1953125 C12.01618522 22.13133897 9.50334163 28.48271187 4.98828125 36.0078125 C-0.40663709 41.11111363 -6.05112195 42.47476696 -13.38671875 42.7578125 C-19.56385724 42.55146412 -23.9088785 41.65331304 -28.32421875 37.1953125 C-34.53935861 29.16872484 -35.41040256 21.11579132 -34.32421875 11.1953125 C-32.8682368 7.85511862 -30.98877679 5.64791706 -28.32421875 3.1953125 C-27.5353125 2.42767578 -27.5353125 2.42767578 -26.73046875 1.64453125 C-19.62062666 -4.79422881 -8.10297478 -4.79803476 0 0 Z " fill="#11100E" transform="translate(270.32421875,199.8046875)"/>
<path d="M0 0 C4.59643153 0.88414713 6.64359789 3.42640469 9.73046875 6.796875 C10.55708008 7.6640918 10.55708008 7.6640918 11.40039062 8.54882812 C12.49014132 9.69287245 13.57399965 10.84256123 14.65161133 11.99804688 C15.99927257 13.43011324 17.38579818 14.82538133 18.77734375 16.21484375 C21.21607996 18.65756482 23.54567751 21.1696832 25.85546875 23.734375 C26.62246094 24.58257812 27.38945312 25.43078125 28.1796875 26.3046875 C30.16796875 28.609375 30.16796875 28.609375 32.16796875 31.609375 C30.51796875 31.939375 28.86796875 32.269375 27.16796875 32.609375 C27.16796875 33.599375 27.16796875 34.589375 27.16796875 35.609375 C26.16796875 37.796875 26.16796875 37.796875 25.16796875 39.609375 C21.55383409 36.69026624 18.18528526 33.76975075 15.23046875 30.171875 C12.45943496 26.80491996 9.35647353 24.05904661 6 21.28515625 C4.09626904 19.5437904 2.64984813 17.7152036 1.16796875 15.609375 C-1.83884925 16.94936998 -3.82965734 18.40782791 -6.08203125 20.796875 C-8.55223535 23.34608349 -11.07357648 25.73756993 -13.76953125 28.046875 C-17.45151295 31.20490999 -20.82343565 34.59437523 -24.16796875 38.10546875 C-25.83203125 39.609375 -25.83203125 39.609375 -27.83203125 39.609375 C-28.16203125 40.599375 -28.49203125 41.589375 -28.83203125 42.609375 C-30.2578125 44.01171875 -30.2578125 44.01171875 -32.14453125 45.546875 C-35.90629591 48.7278286 -39.37878979 52.10343304 -42.83203125 55.609375 C-48.16865599 61.00713809 -53.49447633 66.38433839 -59.83203125 70.609375 C-60.16203125 69.619375 -60.49203125 68.629375 -60.83203125 67.609375 C-60.17203125 67.609375 -59.51203125 67.609375 -58.83203125 67.609375 C-59.16203125 66.619375 -59.49203125 65.629375 -59.83203125 64.609375 C-61.81203125 64.279375 -63.79203125 63.949375 -65.83203125 63.609375 C-66.49203125 64.929375 -67.15203125 66.249375 -67.83203125 67.609375 C-68.49203125 67.609375 -69.15203125 67.609375 -69.83203125 67.609375 C-69.83203125 68.269375 -69.83203125 68.929375 -69.83203125 69.609375 C-71.64453125 70.671875 -71.64453125 70.671875 -73.83203125 71.609375 C-74.82203125 71.279375 -75.81203125 70.949375 -76.83203125 70.609375 C-76.38214844 70.23167969 -75.93226563 69.85398437 -75.46875 69.46484375 C-70.72154882 65.40260947 -66.28857862 61.10627791 -61.90112305 56.65893555 C-58.70009863 53.43136038 -55.38236801 50.43097355 -51.92578125 47.484375 C-49.29217569 45.12592226 -46.81376907 42.6249182 -44.33203125 40.109375 C-41.27865174 37.01445998 -38.2087944 33.99003223 -34.89453125 31.171875 C-30.79012985 27.67428449 -27.04909708 23.85403773 -23.26293945 20.02075195 C-19.8717032 16.60371457 -16.3869166 13.37592805 -12.69921875 10.27734375 C-9.88157881 7.76033067 -7.38798362 4.94196491 -4.88671875 2.11328125 C-2.83203125 0.609375 -2.83203125 0.609375 0 0 Z " fill="#100E0C" transform="translate(259.83203125,154.390625)"/>
<path d="M0 0 C0 0.99 0 1.98 0 3 C0.66 3 1.32 3 2 3 C1.67 4.32 1.34 5.64 1 7 C1.99 7.495 1.99 7.495 3 8 C3 7.34 3 6.68 3 6 C5.97 6.495 5.97 6.495 9 7 C7.05556145 8.94443855 5.5996333 9.81391894 3.1875 11.0625 C-21.75702511 24.79196662 -41.78909757 46.30900138 -52 73 C-52.75899168 74.75516827 -53.52880032 76.50572398 -54.3125 78.25 C-54.63863281 78.97703125 -54.96476562 79.7040625 -55.30078125 80.453125 C-55.53152344 80.96359375 -55.76226562 81.4740625 -56 82 C-56.28875 81.38125 -56.5775 80.7625 -56.875 80.125 C-57.93720042 77.86674235 -57.93720042 77.86674235 -60 76 C-60.66 76.99 -61.32 77.98 -62 79 C-62.99 79 -63.98 79 -65 79 C-66.485 83.95 -66.485 83.95 -68 89 C-68.66 89 -69.32 89 -70 89 C-69.95875 90.11375 -69.9175 91.2275 -69.875 92.375 C-69.86430962 95.47788189 -70.21913121 98.09950313 -71 101.09375 C-72.71271855 109.31692666 -72.20938757 117.76903835 -72.125 126.125 C-72.11495032 127.86197401 -72.10582798 129.59895364 -72.09765625 131.3359375 C-72.07579974 135.5574325 -72.04137951 139.77865307 -72 144 C-72.33 144 -72.66 144 -73 144 C-77.26994552 125.9682371 -75.08771627 102.61132554 -70 85 C-69.80164551 84.26539551 -69.60329102 83.53079102 -69.39892578 82.77392578 C-65.53978425 68.69742307 -59.09671794 55.14507691 -51 43 C-50.34 43 -49.68 43 -49 43 C-48.34 41.02 -47.68 39.04 -47 37 C-46.34 37 -45.68 37 -45 37 C-44.73574219 36.41863281 -44.47148437 35.83726562 -44.19921875 35.23828125 C-37.27683843 22.31800789 -22.74397949 12.26139657 -11.125 3.9375 C-10.07570312 3.18339844 -9.02640625 2.42929688 -7.9453125 1.65234375 C-4.91468648 -0.04786157 -3.40065435 -0.39527901 0 0 Z " fill="#121415" transform="translate(192,149)"/>
<path d="M0 0 C11.88 0 23.76 0 36 0 C36.02316126 5.44032227 36.04301154 10.88046819 36.05493164 16.32080078 C36.05990958 18.16520777 36.06669434 20.00961093 36.07543945 21.85400391 C36.12516284 32.62350382 35.99810215 43.26730746 35 54 C33 54 33 54 31.625 52.671875 C29.74682685 50.45057406 27.8727686 48.22585991 26 46 C25.23042969 45.14019531 24.46085937 44.28039062 23.66796875 43.39453125 C14.43833587 32.85676142 0 14.63440089 0 0 Z " fill="#F1C2A6" transform="translate(136,312)"/>
<path d="M0 0 C11.55 0 23.1 0 35 0 C29.17748241 17.46755278 29.17748241 17.46755278 26 23 C25.65195312 23.61907227 25.30390625 24.23814453 24.9453125 24.87597656 C20.44500931 32.69166269 15.47881476 40.00885784 9.625 46.875 C9.12548828 47.46361816 8.62597656 48.05223633 8.11132812 48.65869141 C5.48873053 51.64140952 3.6228492 53.1885754 0 55 C0 36.85 0 18.7 0 0 Z " fill="#F8C7A9" transform="translate(344,310)"/>
<path d="M0 0 C14.52 0 29.04 0 44 0 C44 6.93 44 13.86 44 21 C30.47 21 16.94 21 3 21 C0 6 0 6 0 0 Z " fill="#EDBFA3" transform="translate(129,280)"/>
<path d="M0 0 C13.53 0 27.06 0 41 0 C41 11 41 11 39 20 C26.13 20 13.26 20 0 20 C0 13.4 0 6.8 0 0 Z " fill="#FBC9AB" transform="translate(343,279)"/>
<path d="M0 0 C3.3258409 2.062783 6.23502468 4.47004936 8 8 C8.47747649 11.4787573 8.67117492 13.95296712 6.73046875 16.98046875 C3.36275606 20.95453361 1.61022783 22.83897722 -3.75 23.375 C-7.10058068 23.35058775 -8.84894532 22.75601354 -11.4375 20.625 C-15.14829142 16.82370147 -15.39257459 14.47406195 -15.359375 9.328125 C-14.75455722 5.40995764 -12.83123243 3.69641184 -10 1 C-6.7374887 -0.63125565 -3.5120384 -0.68851113 0 0 Z " fill="#DEDBCC" transform="translate(262,208)"/>
<path d="M0 0 C13.86 0 27.72 0 42 0 C42 2.31 42 4.62 42 7 C36.34017703 7.16740321 30.68021782 7.32798446 25.02001953 7.48217773 C23.09353392 7.53562804 21.16709958 7.59095971 19.24072266 7.64819336 C16.4756984 7.73001986 13.71056186 7.80513291 10.9453125 7.87890625 C10.0806839 7.90594131 9.2160553 7.93297638 8.32522583 7.96083069 C2.22774341 8.11387171 2.22774341 8.11387171 0 7 C0 4.69 0 2.38 0 0 Z " fill="#FBD9C1" transform="translate(130,281)"/>
<path d="M0 0 C13.53 0 27.06 0 41 0 C41 1.98 41 3.96 41 6 C39.07966607 7.92033393 35.5528101 7.27661397 32.9296875 7.3515625 C32.21523468 7.37471527 31.50078186 7.39786804 30.76467896 7.42172241 C29.24651416 7.46945382 27.72826878 7.51467644 26.20996094 7.55761719 C23.90526714 7.62412654 21.6011661 7.70213271 19.296875 7.78125 C17.82033377 7.82622456 16.34377155 7.87051635 14.8671875 7.9140625 C13.8433345 7.94990952 13.8433345 7.94990952 12.79879761 7.98648071 C8.38866963 8.09972387 4.33104871 7.72758244 0 7 C0 4.69 0 2.38 0 0 Z " fill="#F4D3BD" transform="translate(343,279)"/>
<path d="M0 0 C11.55 0 23.1 0 35 0 C34.34 1.98 33.68 3.96 33 6 C32.34 6 31.68 6 31 6 C30.67 6.99 30.34 7.98 30 9 C30 8.34 30 7.68 30 7 C29.01 7.33 28.02 7.66 27 8 C24.93326094 8.01592966 22.86573917 7.96615799 20.80078125 7.87890625 C19.59228516 7.83056641 18.38378906 7.78222656 17.13867188 7.73242188 C15.87603516 7.67634766 14.61339844 7.62027344 13.3125 7.5625 C12.03826172 7.51029297 10.76402344 7.45808594 9.45117188 7.40429688 C6.30053961 7.27449555 3.15021423 7.1395244 0 7 C0 4.69 0 2.38 0 0 Z " fill="#F7D5BE" transform="translate(344,310)"/>
<path d="M0 0 C11.55 0 23.1 0 35 0 C35 1.98 35 3.96 35 6 C32.15464275 7.42267862 29.63781448 7.21971869 26.4609375 7.31640625 C25.15898437 7.35830078 23.85703125 7.40019531 22.515625 7.44335938 C21.13541955 7.48317299 19.75521117 7.52288522 18.375 7.5625 C16.98696585 7.60569407 15.59894472 7.64930865 14.2109375 7.69335938 C10.80739744 7.79972 7.40378222 7.90174714 4 8 C4 7.34 4 6.68 4 6 C3.01 5.67 2.02 5.34 1 5 C0.67 3.35 0.34 1.7 0 0 Z " fill="#FBD8C1" transform="translate(136,313)"/>
<path d="M0 0 C0.33 0 0.66 0 1 0 C1.07442006 5.01705721 1.12872908 10.03378972 1.16479492 15.05126953 C1.17983738 16.75640463 1.20027653 18.46150132 1.22631836 20.16650391 C1.26290284 22.62412012 1.27977173 25.08122269 1.29296875 27.5390625 C1.30845261 28.29555084 1.32393646 29.05203918 1.33988953 29.83145142 C1.34139734 34.62449324 0.61716215 37.834127 -2 42 C-6.07435992 45.68632564 -9.45468536 46.68101478 -14.80859375 46.47265625 C-18.51697491 45.67280933 -20.38736894 43.6796216 -23 41 C-22.01 40.505 -22.01 40.505 -21 40 C-20.2575 40.309375 -19.515 40.61875 -18.75 40.9375 C-15.46003949 42.20862111 -13.49452998 42.58242166 -10 42 C-3.47671856 36.21800054 -3.12055893 29.41504948 -2.56152344 21.06420898 C-2.4413744 19.06448443 -2.34336303 17.06346796 -2.24609375 15.0625 C-2 12 -2 12 -1 11 C-0.76636119 9.15108054 -0.58696365 7.29511969 -0.4375 5.4375 C-0.35371094 4.42558594 -0.26992187 3.41367187 -0.18359375 2.37109375 C-0.09271484 1.19740234 -0.09271484 1.19740234 0 0 Z " fill="#8AC0AF" transform="translate(246,285)"/>
<path d="M0 0 C0.6985611 0.00049347 1.39712219 0.00098694 2.11685181 0.00149536 C12.41350398 0.02374645 22.12748857 0.68014024 32.125 3.3125 C33.78956085 3.65619475 35.45553556 3.99347433 37.125 4.3125 C37.125 4.6425 37.125 4.9725 37.125 5.3125 C34.68736201 5.1687497 32.2499105 5.02252168 29.8125 4.875 C29.14154297 4.83568359 28.47058594 4.79636719 27.77929688 4.75585938 C23.8025366 4.51314631 19.84702017 4.18875116 15.8828125 3.7890625 C9.69003292 3.21592556 3.52892908 3.12087131 -2.6875 3.125 C-3.82372803 3.12508057 -4.95995605 3.12516113 -6.13061523 3.12524414 C-19.26683678 2.43801289 -19.26683678 2.43801289 -30.875 6.3125 C-32.63459255 6.73712895 -34.40858633 7.10292286 -36.1875 7.4375 C-37.15300781 7.62570313 -38.11851562 7.81390625 -39.11328125 8.0078125 C-41.74565076 8.2982295 -43.39287338 8.14970185 -45.875 7.3125 C-43.50425875 6.5058322 -41.12952308 5.71752782 -38.75 4.9375 C-38.10417969 4.71578125 -37.45835937 4.4940625 -36.79296875 4.265625 C-24.84739596 0.39753476 -12.46041616 -0.06091981 0 0 Z " fill="#041721" transform="translate(255.875,131.6875)"/>
<path d="M0 0 C4.17668792 2.08834396 5.67128755 3.79578185 8.4375 7.34375 C11.0017269 10.06183052 13.21296896 10.91443036 16.93261719 11.31884766 C18.04282227 11.35026855 19.15302734 11.38168945 20.296875 11.4140625 C21.50214844 11.45273437 22.70742188 11.49140625 23.94921875 11.53125 C25.20347656 11.5621875 26.45773437 11.593125 27.75 11.625 C29.65458984 11.68300781 29.65458984 11.68300781 31.59765625 11.7421875 C34.7316257 11.83644222 37.86558949 11.92205166 41 12 C41 10.02 41 8.04 41 6 C41.33 6 41.66 6 42 6 C42 8.31 42 10.62 42 13 C28.14 13 14.28 13 0 13 C0 8.71 0 4.42 0 0 Z " fill="#D4AE96" transform="translate(343,255)"/>
<path d="M0 0 C0.495 0.99 0.495 0.99 1 2 C-5.9192239 2.28799955 -12.8385879 2.57243689 -19.75805664 2.85449219 C-22.10802462 2.95069254 -24.45796036 3.04768418 -26.80786133 3.14550781 C-30.20125118 3.28662905 -33.59474991 3.42482797 -36.98828125 3.5625 C-38.02519608 3.60624756 -39.0621109 3.64999512 -40.13044739 3.69506836 C-46.75752426 3.96037163 -53.36783079 4.05141651 -60 4 C-60 3.67 -60 3.34 -60 3 C-39.85866702 0.31067429 -20.28513732 -0.38734839 0 0 Z " fill="#749BAC" transform="translate(274,60)"/>
<path d="M0 0 C0.495 1.485 0.495 1.485 1 3 C-0.22265625 4.90234375 -0.22265625 4.90234375 -2.0625 6.9375 C-2.65160156 7.60652344 -3.24070312 8.27554687 -3.84765625 8.96484375 C-8.74044772 13.59124004 -12.31899844 15.50311192 -19.10693359 15.45410156 C-19.79055969 15.45468567 -20.47418579 15.45526978 -21.17852783 15.45587158 C-23.41902975 15.45310371 -25.65817051 15.42207681 -27.8984375 15.390625 C-29.45927199 15.38315791 -31.02011589 15.37746719 -32.58096313 15.37347412 C-36.67468478 15.35825441 -40.76783222 15.31900507 -44.86132812 15.2746582 C-49.04419183 15.23362584 -53.22714898 15.21544617 -57.41015625 15.1953125 C-65.60703335 15.15250648 -73.8034451 15.08430054 -82 15 C-82 14.67 -82 14.34 -82 14 C-81.1636351 13.99857498 -80.3272702 13.99714996 -79.46556091 13.99568176 C-71.56489482 13.97781643 -63.6647864 13.93609869 -55.76438808 13.86790943 C-51.70312117 13.83368882 -47.64222844 13.80853722 -43.58081055 13.80444336 C-39.6576771 13.80014967 -35.73538703 13.77159994 -31.81251717 13.72656822 C-30.31953922 13.71362711 -28.82646018 13.70927354 -27.33343315 13.71384621 C-16.15685368 13.82016696 -16.15685368 13.82016696 -7 8 C-4.80437696 5.84602397 -4.80437696 5.84602397 -3.0625 3.6875 C-2.47597656 2.99011719 -1.88945312 2.29273438 -1.28515625 1.57421875 C-0.86105469 1.05472656 -0.43695313 0.53523438 0 0 Z " fill="#1F536F" transform="translate(358,367)"/>
<path d="M0 0 C0.33 0 0.66 0 1 0 C0.97905273 1.08192627 0.95810547 2.16385254 0.93652344 3.27856445 C0.86271227 7.3918673 0.81770207 11.50511546 0.78027344 15.61889648 C0.76047233 17.38071615 0.73342399 19.14247308 0.69824219 20.90405273 C0.3748516 37.54440081 2.92455631 52.67744113 8.265625 68.43359375 C9 71 9 71 9 75 C8.01 74.67 7.02 74.34 6 74 C5.87882812 73.31292969 5.75765625 72.62585938 5.6328125 71.91796875 C5.46523437 71.01691406 5.29765625 70.11585938 5.125 69.1875 C4.96257812 68.29417969 4.80015625 67.40085937 4.6328125 66.48046875 C4.08811551 63.77272154 4.08811551 63.77272154 2 61 C1.57212659 58.9305469 1.2271513 56.84327827 0.9375 54.75 C0.78152344 53.65171875 0.62554687 52.5534375 0.46484375 51.421875 C0.31144531 50.29265625 0.15804687 49.1634375 0 48 C-0.17184814 46.96302979 -0.34369629 45.92605957 -0.52075195 44.85766602 C-1.06331711 40.49033437 -1.1437856 36.25002972 -1.1328125 31.85546875 C-1.13376923 31.00447098 -1.13472595 30.15347321 -1.13571167 29.27668762 C-1.13638841 27.49085414 -1.13456962 25.70501813 -1.13037109 23.91918945 C-1.12498229 21.17849277 -1.13035017 18.43795749 -1.13671875 15.69726562 C-1.13605853 13.95833297 -1.13477853 12.21940042 -1.1328125 10.48046875 C-1.13483673 9.65967331 -1.13686096 8.83887787 -1.13894653 7.99320984 C-1.11498198 2.22996396 -1.11498198 2.22996396 0 0 Z " fill="#1B4E68" transform="translate(118,249)"/>
<path d="M0 0 C0.33 0.66 0.66 1.32 1 2 C-5 11 -5 11 -8 12 C-7.938125 13.794375 -7.938125 13.794375 -7.875 15.625 C-7.88176224 19.43890056 -8.40907651 22.48322175 -10 26 C-10.99 26.66 -11.98 27.32 -13 28 C-12.814375 27.071875 -12.62875 26.14375 -12.4375 25.1875 C-11.75876119 21.98656229 -11.75876119 21.98656229 -13 19 C-11.5625 16.3125 -11.5625 16.3125 -10 14 C-10.66 13.67 -11.32 13.34 -12 13 C-12.28875 13.78375 -12.5775 14.5675 -12.875 15.375 C-14 18 -14 18 -16 20 C-18.125 19.625 -18.125 19.625 -20 19 C-15.78781944 14.66935186 -11.44298473 10.5882631 -6.8671875 6.64453125 C-4.46487962 4.52869105 -2.22791166 2.2975339 0 0 Z " fill="#1A120E" transform="translate(234,177)"/>
<path d="M0 0 C0.99 0.33 1.98 0.66 3 1 C0.1079996 4.69533384 -1.77539218 6.96053416 -6 9 C-6.68268138 10.32520503 -7.3507041 11.65812182 -8 13 C-8.99 13.33 -9.98 13.66 -11 14 C-11.103125 14.598125 -11.20625 15.19625 -11.3125 15.8125 C-12 18 -12 18 -14.9375 19.9375 C-18.36182767 22.24367986 -18.58277989 23.31522772 -20 27 C-21.65532623 28.01866229 -23.32260138 29.01810813 -25 30 C-26.03357147 31.64605826 -27.04060332 33.30963442 -28 35 C-28.66 35 -29.32 35 -30 35 C-23.73095395 21.56204483 -10.46962433 10.26522819 0 0 Z " fill="#58869D" transform="translate(103,115)"/>
<path d="M0 0 C0.33 0 0.66 0 1 0 C0.85866501 1.77119803 0.71176792 3.54195287 0.5625 5.3125 C0.48128906 6.29863281 0.40007812 7.28476562 0.31640625 8.30078125 C0 11 0 11 -1 14 C-13.87 14 -26.74 14 -40 14 C-40 9.71 -40 5.42 -40 1 C-39.67 1 -39.34 1 -39 1 C-39 4.96 -39 8.92 -39 13 C-37.68 12.67 -36.36 12.34 -35 12 C-32.55024034 11.86251439 -30.09749341 11.7753302 -27.64453125 11.71875 C-26.59116829 11.69113586 -26.59116829 11.69113586 -25.51652527 11.66296387 C-22.52036382 11.58445691 -19.5239921 11.51626876 -16.52758789 11.44775391 C-14.33728433 11.39617281 -12.14718207 11.3389009 -9.95703125 11.28125 C-8.64710205 11.25095703 -7.33717285 11.22066406 -5.98754883 11.18945312 C-3.11756347 11.33787631 -3.11756347 11.33787631 -2 10 C-1.79300437 8.50503158 -1.63320741 7.0033408 -1.5 5.5 C-1.11111111 1.11111111 -1.11111111 1.11111111 0 0 Z " fill="#C1A08D" transform="translate(383,285)"/>
<path d="M0 0 C2.31 1.98 4.62 3.96 7 6 C6.01 6.33 5.02 6.66 4 7 C2.33289654 8.49985609 2.33289654 8.49985609 1 10 C1.33 10.66 1.66 11.32 2 12 C1.01 12.99 0.02 13.98 -1 15 C-4.63 11.37 -8.26 7.74 -12 4 C-11.01 3.34 -10.02 2.68 -9 2 C-9 2.66 -9 3.32 -9 4 C-7.68 3.67 -6.36 3.34 -5 3 C-5.33 4.32 -5.66 5.64 -6 7 C-3.94729537 5.15811388 -3.94729537 5.15811388 -3 3 C-2.01 2.01 -1.02 1.02 0 0 Z " fill="#111111" transform="translate(285,179)"/>
<path d="M0 0 C1 2 1 2 0.125 4.6875 C-0.24625 5.780625 -0.6175 6.87375 -1 8 C-1.2165625 9.794375 -1.2165625 9.794375 -1.4375 11.625 C-2 15 -2 15 -3.46484375 16.89453125 C-7.98385636 23.0923628 -7.4537939 33.56872225 -8 41 C-9.65 41.66 -11.3 42.32 -13 43 C-12.34 42.01 -11.68 41.02 -11 40 C-10.6594558 37.24071878 -10.40006324 34.51879461 -10.1875 31.75 C-9.12426883 20.42144341 -6.33362335 9.61772435 0 0 Z " fill="#F6D6C3" transform="translate(147,218)"/>
<path d="M0 0 C0.9727739 0.01886765 1.94554779 0.03773529 2.94779968 0.05717468 C5.00293896 0.09897849 7.05802054 0.14370772 9.11303711 0.19116211 C12.23995902 0.26123115 15.36689596 0.31569398 18.49414062 0.36914062 C20.49611431 0.41180615 22.49806856 0.455396 24.5 0.5 C25.89101677 0.52203239 25.89101677 0.52203239 27.31013489 0.54450989 C32.82296507 0.68851941 37.64928724 1.41015483 42.94921875 2.94921875 C42.94921875 3.60921875 42.94921875 4.26921875 42.94921875 4.94921875 C42.16546875 4.80484375 41.38171875 4.66046875 40.57421875 4.51171875 C20.76763749 1.43828373 -1.31761225 1.3141613 -21.05078125 4.94921875 C-20.72078125 4.28921875 -20.39078125 3.62921875 -20.05078125 2.94921875 C-17.48828125 2.32421875 -17.48828125 2.32421875 -15.05078125 1.94921875 C-15.05078125 1.61921875 -15.05078125 1.28921875 -15.05078125 0.94921875 C-10.05739746 -0.39307472 -5.12091363 -0.11389876 0 0 Z " fill="#1D4E6A" transform="translate(245.05078125,130.05078125)"/>
<path d="M0 0 C0.33 0 0.66 0 1 0 C1.16249454 2.41936317 1.28097817 4.82781859 1.375 7.25 C1.45041016 8.27287109 1.45041016 8.27287109 1.52734375 9.31640625 C1.5859375 11.328125 1.5859375 11.328125 1 15 C-3.16948918 18.72403094 -6.39268165 19.68342779 -11.80859375 19.47265625 C-15.51697491 18.67280933 -17.38736894 16.6796216 -20 14 C-19.34 13.67 -18.68 13.34 -18 13 C-17.2575 13.309375 -16.515 13.61875 -15.75 13.9375 C-12.46003949 15.20862111 -10.49452998 15.58242166 -7 15 C-2.11230372 10.66772375 -0.94374022 6.33855373 0 0 Z " fill="#8EC6B6" transform="translate(243,312)"/>
<path d="M0 0 C0.33 0 0.66 0 1 0 C1.1799928 5.21979128 0.97094808 9.07262981 -1 14 C-1.66 14 -2.32 14 -3 14 C-2.95875 15.11375 -2.9175 16.2275 -2.875 17.375 C-2.86430962 20.47788189 -3.21913121 23.09950313 -4 26.09375 C-5.71271855 34.31692666 -5.20938757 42.76903835 -5.125 51.125 C-5.11495032 52.86197401 -5.10582798 54.59895364 -5.09765625 56.3359375 C-5.07579974 60.5574325 -5.04137951 64.77865307 -5 69 C-5.33 69 -5.66 69 -6 69 C-7.63183008 62.1088645 -7.28880324 54.98096312 -7.3125 47.9375 C-7.31545074 47.1738916 -7.31840149 46.4102832 -7.32144165 45.62353516 C-7.332247 33.34866108 -6.35830295 21.86293682 -3 10 C-2.69191406 8.87078125 -2.38382812 7.7415625 -2.06640625 6.578125 C-1.42896057 4.36993996 -0.72680246 2.18040738 0 0 Z " fill="#051A27" transform="translate(125,224)"/>
<path d="M0 0 C1.32 0.33 2.64 0.66 4 1 C-0.5531001 5.44030216 -2.99791359 6.62291319 -9.56591797 6.56762695 C-10.6645089 6.56872215 -10.6645089 6.56872215 -11.78529358 6.56983948 C-14.18836454 6.56637641 -16.58945836 6.52758085 -18.9921875 6.48828125 C-20.66511985 6.47894845 -22.33806592 6.47183454 -24.01101685 6.46684265 C-28.40077867 6.44780934 -32.78970503 6.39874111 -37.17913818 6.34332275 C-41.66358134 6.29205051 -46.14816032 6.26931165 -50.6328125 6.24414062 C-59.42225716 6.19061794 -68.21102446 6.10535075 -77 6 C-77 5.67 -77 5.34 -77 5 C-52.58 5 -28.16 5 -3 5 C-3 4.01 -3 3.02 -3 2 C-2.01 2 -1.02 2 0 2 C0 1.34 0 0.68 0 0 Z " fill="#020D14" transform="translate(348,374)"/>
<path d="M0 0 C-0.33 0.66 -0.66 1.32 -1 2 C-0.38125 1.79375 0.2375 1.5875 0.875 1.375 C1.926875 1.189375 1.926875 1.189375 3 1 C3.66 1.66 4.32 2.32 5 3 C4.46978708 7.24170337 1.89560266 9.10439734 -1 12 C-1 10.68 -1 9.36 -1 8 C-1.94875 7.87625 -2.8975 7.7525 -3.875 7.625 C-7 7 -7 7 -9 5 C-9 4.01 -9 3.02 -9 2 C-3.375 -1.125 -3.375 -1.125 0 0 Z " fill="#0B0A08" transform="translate(280,175)"/>
<path d="M0 0 C0.99 0.33 1.98 0.66 3 1 C2.484375 1.7425 1.96875 2.485 1.4375 3.25 C-0.23620441 6.45186931 0.10939624 6.73445287 1 10 C0.0625 13.25 0.0625 13.25 -1 16 C-1.99 15.67 -2.98 15.34 -4 15 C-4 14.34 -4 13.68 -4 13 C-4.66 12.67 -5.32 12.34 -6 12 C-6.66 13.32 -7.32 14.64 -8 16 C-10 14 -10 14 -10.125 10.875 C-10.08375 9.92625 -10.0425 8.9775 -10 8 C-8.3603125 7.4121875 -8.3603125 7.4121875 -6.6875 6.8125 C-3.08925078 5.2974477 -1.65475777 3.60153162 0 0 Z " fill="#0C0B09" transform="translate(222,190)"/>
<path d="M0 0 C0.66 0.33 1.32 0.66 2 1 C0.09662915 4.40603204 -2.05725436 7.29755565 -4.60546875 10.24609375 C-6.83591081 13.0513276 -8.68396845 16.10088964 -10.5703125 19.14453125 C-12 21 -12 21 -15 22 C-15.33 22.99 -15.66 23.98 -16 25 C-16.66 25.33 -17.32 25.66 -18 26 C-18.65555119 28.52733235 -18.65555119 28.52733235 -19 31 C-19.66 30.67 -20.32 30.34 -21 30 C-19.5482621 24.33822218 -16.68441695 19.50540116 -13 15 C-12.34 15 -11.68 15 -11 15 C-10.76539063 14.45859375 -10.53078125 13.9171875 -10.2890625 13.359375 C-8.6416356 10.34408456 -6.57346656 7.88815988 -4.375 5.25 C-3.55773437 4.26515625 -2.74046875 3.2803125 -1.8984375 2.265625 C-1.27195313 1.51796875 -0.64546875 0.7703125 0 0 Z " fill="#F8DCCA" transform="translate(169,188)"/>
<path d="M0 0 C18.15 0 36.3 0 55 0 C55 0.33 55 0.66 55 1 C39.29487101 2.40414422 23.76908086 3.30132002 8 3 C8 2.34 8 1.68 8 1 C5.36 1 2.72 1 0 1 C0 0.67 0 0.34 0 0 Z " fill="#517C9C" transform="translate(240,473)"/>
<path d="M0 0 C-3 2 -3 2 -5 2 C-5 2.66 -5 3.32 -5 4 C-5.66 4 -6.32 4 -7 4 C-7.33 16.87 -7.66 29.74 -8 43 C-9.485 43.495 -9.485 43.495 -11 44 C-10.83935059 43.3498291 -10.67870117 42.6996582 -10.51318359 42.02978516 C-9.86296717 38.19097176 -9.82567366 34.4050793 -9.7890625 30.5234375 C-9.76101691 28.86717723 -9.73235264 27.21092734 -9.703125 25.5546875 C-9.66174127 22.95638064 -9.62483135 20.35827269 -9.59863281 17.75976562 C-9.57109183 15.24308979 -9.52525333 12.72728094 -9.4765625 10.2109375 C-9.47330963 9.43277679 -9.47005676 8.65461609 -9.46670532 7.85287476 C-9.34490519 2.52691387 -9.34490519 2.52691387 -7.66943359 -0.03271484 C-5.01736993 -1.56934488 -2.86306481 -0.69986029 0 0 Z " fill="#213932" transform="translate(256,282)"/>
<path d="M0 0 C0 0.33 0 0.66 0 1 C-0.87398438 1.02187378 -0.87398438 1.02187378 -1.765625 1.04418945 C-23.29433784 0.875034 -23.29433784 0.875034 -43 8 C-43 7.01 -43 6.02 -43 5 C-43.99 4.67 -44.98 4.34 -46 4 C-30.51884171 0.53103962 -15.84577404 -0.54252058 0 0 Z " fill="#CFAC97" transform="translate(268,143)"/>
<path d="M0 0 C0.33 0 0.66 0 1 0 C1.33 10.89 1.66 21.78 2 33 C2.66 33 3.32 33 4 33 C4 31.68 4 30.36 4 29 C4.99 29 5.98 29 7 29 C7.33 28.01 7.66 27.02 8 26 C8.66 26 9.32 26 10 26 C8.59835111 30.76560621 5.84588526 33.95882443 2 37 C1.34 37 0.68 37 0 37 C0 24.79 0 12.58 0 0 Z " fill="#DCB59F" transform="translate(344,328)"/>
<path d="M0 0 C0.33 0 0.66 0 1 0 C1 9.57 1 19.14 1 29 C1.99 28.67 2.98 28.34 4 28 C4.66 29.65 5.32 31.3 6 33 C3.03 35.475 3.03 35.475 0 38 C0 25.46 0 12.92 0 0 Z " fill="#CDCCBF" transform="translate(183,312)"/>
<path d="M0 0 C0.66 0 1.32 0 2 0 C2.36237263 1.62318979 2.71465157 3.2486358 3.0625 4.875 C3.25972656 5.77992188 3.45695313 6.68484375 3.66015625 7.6171875 C4 10 4 10 3 12 C15.87 12 28.74 12 42 12 C42 12.33 42 12.66 42 13 C28.8 13 15.6 13 2 13 C0 4 0 4 0 0 Z " fill="#D6B4A1" transform="translate(130,288)"/>
<path d="M0 0 C1.04988635 3.16768473 0.99712315 4.80564017 -0.328125 7.85546875 C-0.78638672 8.91217773 -0.78638672 8.91217773 -1.25390625 9.99023438 C-1.74697266 11.07788086 -1.74697266 11.07788086 -2.25 12.1875 C-2.71986328 13.29254883 -2.71986328 13.29254883 -3.19921875 14.41992188 C-4.04284019 16.32244574 -5.01417939 18.16711924 -6 20 C-6.99 20.33 -7.98 20.66 -9 21 C-8.67 22.98 -8.34 24.96 -8 27 C-9.32 27.33 -10.64 27.66 -12 28 C-11.4143265 24.53740069 -10.528189 21.65580843 -9.00390625 18.49609375 C-8.41319336 17.26149414 -8.41319336 17.26149414 -7.81054688 16.00195312 C-7.39869141 15.15568359 -6.98683594 14.30941406 -6.5625 13.4375 C-6.15451172 12.58736328 -5.74652344 11.73722656 -5.32617188 10.86132812 C-3.57864498 7.22658622 -1.80953735 3.60429673 0 0 Z " fill="#538098" transform="translate(61,167)"/>
<path d="M0 0 C1.98 0.99 1.98 0.99 4 2 C4 2.66 4 3.32 4 4 C4.66 4 5.32 4 6 4 C5.67 5.32 5.34 6.64 5 8 C5.66 8 6.32 8 7 8 C7.33 6.68 7.66 5.36 8 4 C8.66 4 9.32 4 10 4 C11.0257259 8.41062136 11.03684712 10.92630576 9 15 C0 4.33333333 0 4.33333333 0 0 Z " fill="#296A8B" transform="translate(61,367)"/>
<path d="M0 0 C-5.39918083 4.47360697 -11.05403328 8.51157856 -18 10 C-18.33 9.01 -18.66 8.02 -19 7 C-3.80170576 -1.90085288 -3.80170576 -1.90085288 0 0 Z " fill="#051018" transform="translate(210,141)"/>
<path d="M0 0 C2.5 0.25 2.5 0.25 4.5 2.25 C5.81747324 2.94748583 7.14914193 3.61959957 8.5 4.25 C8.5 5.9 8.5 7.55 8.5 9.25 C7.18 8.92 5.86 8.59 4.5 8.25 C4.5 7.59 4.5 6.93 4.5 6.25 C3.943125 6.146875 3.38625 6.04375 2.8125 5.9375 C0.05823422 5.11866423 -2.08727657 3.79146219 -4.5 2.25 C-2.5 0.25 -2.5 0.25 0 0 Z " fill="#3D7998" transform="translate(132.5,437.75)"/>
<path d="M0 0 C5.78898419 -0.20674944 10.42932723 0.40837921 16 2 C16 2.66 16 3.32 16 4 C17.423125 3.9690625 17.423125 3.9690625 18.875 3.9375 C22 4 22 4 24 5 C23.67 5.99 23.34 6.98 23 8 C16.25 6.25 16.25 6.25 14 4 C11.64319825 3.3839535 9.26368079 2.85273616 6.875 2.375 C4.95300781 1.98441406 4.95300781 1.98441406 2.9921875 1.5859375 C1.51105469 1.29589844 1.51105469 1.29589844 0 1 C0 0.67 0 0.34 0 0 Z " fill="#1C516A" transform="translate(288,135)"/>
<path d="M0 0 C0.33 0.99 0.66 1.98 1 3 C1.99 3 2.98 3 4 3 C3.69381595 6.67420866 3.24228216 7.78135513 0.4375 10.3125 C-0.366875 10.869375 -1.17125 11.42625 -2 12 C-2.33 8.7 -2.66 5.4 -3 2 C-2.01 1.34 -1.02 0.68 0 0 Z " fill="#151413" transform="translate(193,222)"/>
<path d="M0 0 C0.33 0.66 0.66 1.32 1 2 C0.67 2.66 0.34 3.32 0 4 C-0.99 4 -1.98 4 -3 4 C-3.33 5.65 -3.66 7.3 -4 9 C-5.32 9 -6.64 9 -8 9 C-8.33 9.66 -8.66 10.32 -9 11 C-10.66666667 11 -12.33333333 11 -14 11 C-12.23055495 9.53998252 -10.45939429 8.08204407 -8.6875 6.625 C-7.70136719 5.81289062 -6.71523437 5.00078125 -5.69921875 4.1640625 C-3 2 -3 2 0 0 Z " fill="#497E98" transform="translate(121,101)"/>
<path d="M0 0 C0.66 0.33 1.32 0.66 2 1 C2 1.66 2 2.32 2 3 C1.2884375 3.6496875 1.2884375 3.6496875 0.5625 4.3125 C-1.41383086 6.44693733 -1.61663236 8.16307947 -2 11 C-2.598125 11.12375 -3.19625 11.2475 -3.8125 11.375 C-6.26231348 11.95475985 -6.26231348 11.95475985 -9 14 C-9.66 13.34 -10.32 12.68 -11 12 C-10.54109375 11.63648438 -10.0821875 11.27296875 -9.609375 10.8984375 C-5.56506013 7.58481817 -2.67466686 4.49344033 0 0 Z " fill="#CFCDBF" transform="translate(303,316)"/>
<path d="M0 0 C0.66 0.33 1.32 0.66 2 1 C1.2884375 1.8353125 1.2884375 1.8353125 0.5625 2.6875 C-1.12395996 5.18346074 -1.58953107 7.0446237 -2 10 C-3.32 10 -4.64 10 -6 10 C-6 10.66 -6 11.32 -6 12 C-6.99 11.67 -7.98 11.34 -9 11 C-7.88037801 9.35050343 -6.75413155 7.70550162 -5.625 6.0625 C-4.99851562 5.14597656 -4.37203125 4.22945313 -3.7265625 3.28515625 C-2 1 -2 1 0 0 Z " fill="#1F170F" transform="translate(365,342)"/>
<path d="M0 0 C-2 1 -4 2 -6 3 C-6.70125 3.37125 -7.4025 3.7425 -8.125 4.125 C-10.06380415 5.02977527 -11.91209843 5.55259252 -14 6 C-14 5.34 -14 4.68 -14 4 C-15.32 3.67 -16.64 3.34 -18 3 C-15.75376301 2.30030318 -13.50283586 1.61564957 -11.25 0.9375 C-9.99703125 0.55464844 -8.7440625 0.17179687 -7.453125 -0.22265625 C-4.3261992 -0.92656828 -2.90533954 -1.16653785 0 0 Z " fill="#538298" transform="translate(196,69)"/>
<path d="M0 0 C0.99 0.33 1.98 0.66 3 1 C2.67 2.98 2.34 4.96 2 7 C2.66 7.33 3.32 7.66 4 8 C2.35 9.32 0.7 10.64 -1 12 C-1.66 11.34 -2.32 10.68 -3 10 C-2.34 9.67 -1.68 9.34 -1 9 C-1.020625 7.700625 -1.04125 6.40125 -1.0625 5.0625 C-1.08399454 3.70834367 -1.07148199 2.35243917 -1 1 C-0.67 0.67 -0.34 0.34 0 0 Z " fill="#121313" transform="translate(234,182)"/>
<path d="M0 0 C1.65 0 3.3 0 5 0 C3.90931332 3.77545388 3.0916909 6.47043472 0 9 C-0.66 8.01 -1.32 7.02 -2 6 C-1.125 2.8125 -1.125 2.8125 0 0 Z " fill="#457B97" transform="translate(452,363)"/>
<path d="M0 0 C2.35171131 0.59861742 4.6859378 1.26924352 7 2 C7.33 2.66 7.66 3.32 8 4 C9.4540625 4.4021875 9.4540625 4.4021875 10.9375 4.8125 C14 6 14 6 15.375 8.625 C15.58125 9.40875 15.7875 10.1925 16 11 C10.37596171 8.0030635 5.06456302 4.87923976 0 1 C0 0.67 0 0.34 0 0 Z " fill="#1D4D66" transform="translate(326,150)"/>
<path d="M0 0 C2.39591038 -0.02712351 4.79150957 -0.0468982 7.1875 -0.0625 C7.86103516 -0.07087891 8.53457031 -0.07925781 9.22851562 -0.08789062 C12.95434131 -0.10606538 16.3788042 0.10700608 20 1 C19.38125 1.268125 18.7625 1.53625 18.125 1.8125 C15.7004767 2.95556848 15.7004767 2.95556848 14 6 C14 4.68 14 3.36 14 2 C13.32453125 2.02320312 12.6490625 2.04640625 11.953125 2.0703125 C10.61507813 2.09738281 10.61507813 2.09738281 9.25 2.125 C8.36828125 2.14820312 7.4865625 2.17140625 6.578125 2.1953125 C3.8864142 1.99139502 2.30095026 1.36551721 0 0 Z " fill="#51859D" transform="translate(287,63)"/>
<path d="M0 0 C1.28610235 3.85830705 0.67580926 5.34368888 -1 9 C-3.5625 10.75 -3.5625 10.75 -6 12 C-6.33 12.66 -6.66 13.32 -7 14 C-7.66 13.67 -8.32 13.34 -9 13 C-6.03 8.71 -3.06 4.42 0 0 Z " fill="#1F506A" transform="translate(373,348)"/>
<path d="M0 0 C0.66 0 1.32 0 2 0 C2 0.66 2 1.32 2 2 C2.66 2 3.32 2 4 2 C4 1.34 4 0.68 4 0 C4.99 0 5.98 0 7 0 C7 0.66 7 1.32 7 2 C0.565 4.97 0.565 4.97 -6 8 C-6 7.01 -6 6.02 -6 5 C-4.35 4.67 -2.7 4.34 -1 4 C-0.67 2.68 -0.34 1.36 0 0 Z " fill="#464747" transform="translate(239,270)"/>
<path d="M0 0 C0.66 0.33 1.32 0.66 2 1 C0.2527456 2.29537826 -1.49791517 3.58616273 -3.25 4.875 C-4.22453125 5.59429687 -5.1990625 6.31359375 -6.203125 7.0546875 C-8.43902154 8.60982225 -10.52872493 9.88204223 -13 11 C-13 10.01 -13 9.02 -13 8 C-12.01 8 -11.02 8 -10 8 C-10 7.01 -10 6.02 -10 5 C-7.69 4.34 -5.38 3.68 -3 3 C-3 2.34 -3 1.68 -3 1 C-2.01 0.67 -1.02 0.34 0 0 Z " fill="#225672" transform="translate(182,151)"/>
<path d="M0 0 C0 0.66 0 1.32 0 2 C-5.24493326 5.34782974 -9.87903309 6.94513949 -16 8 C-14.42875661 4.85751322 -11.7022315 4.29871176 -8.5625 2.875 C-7.38816406 2.33617188 -6.21382812 1.79734375 -5.00390625 1.2421875 C-2 0 -2 0 0 0 Z " fill="#5989A1" transform="translate(162,79)"/>
<path d="M0 0 C5.72108435 2.33081214 9.31913178 7.22850416 13 12 C12.01 12.33 11.02 12.66 10 13 C9.608125 12.2575 9.21625 11.515 8.8125 10.75 C6.48638111 7.22071616 3.78119855 4.89059927 0 3 C0 2.01 0 1.02 0 0 Z " fill="#302117" transform="translate(307,202)"/>
<path d="M0 0 C0 0.99 0 1.98 0 3 C-3.67764836 6.58639157 -8.08680853 9.46462766 -13 11 C-9.27450216 5.99386227 -5.42841405 3.04422227 0 0 Z " fill="#051722" transform="translate(179,155)"/>
<path d="M0 0 C-3.80273074 2.38171031 -7.89003197 2.65510945 -12.25 3.125 C-13.36761719 3.25455078 -13.36761719 3.25455078 -14.5078125 3.38671875 C-16.33777846 3.59786867 -18.16879879 3.79984545 -20 4 C-19.67 3.34 -19.34 2.68 -19 2 C-16.4375 1.375 -16.4375 1.375 -14 1 C-14 0.67 -14 0.34 -14 0 C-9.20699867 -1.39151652 -4.84864218 -0.68662689 0 0 Z " fill="#205672" transform="translate(244,131)"/>
<path d="M0 0 C0.99 0.33 1.98 0.66 3 1 C3 2.32 3 3.64 3 5 C2.34 5 1.68 5 1 5 C1 5.66 1 6.32 1 7 C-0.32 7.33 -1.64 7.66 -3 8 C-3 7.34 -3 6.68 -3 6 C-3.66 5.34 -4.32 4.68 -5 4 C-4.34 4 -3.68 4 -3 4 C-2.67 3.01 -2.34 2.02 -2 1 C-1.34 0.67 -0.68 0.34 0 0 Z " fill="#090906" transform="translate(289,185)"/>
<path d="M0 0 C0.82638376 2.89234315 1 4.88742431 1 8 C2.98 8 4.96 8 7 8 C7 8.66 7 9.32 7 10 C3.625 10.1875 3.625 10.1875 0 10 C-2.14915785 6.77626323 -2.38286803 5.73296326 -2 2 C-1.34 1.34 -0.68 0.68 0 0 Z " fill="#342015" transform="translate(156,251)"/>
<path d="M0 0 C0.66 0 1.32 0 2 0 C4.29612756 13.6332574 4.29612756 13.6332574 4 20 C3.67 20 3.34 20 3 20 C2.86722656 19.28972656 2.73445313 18.57945312 2.59765625 17.84765625 C2.42105469 16.92855469 2.24445313 16.00945312 2.0625 15.0625 C1.88847656 14.14597656 1.71445312 13.22945312 1.53515625 12.28515625 C1.22285012 10.04710156 1.22285012 10.04710156 0 9 C-0.07179964 7.48071962 -0.08392007 5.95832518 -0.0625 4.4375 C-0.05347656 3.61121094 -0.04445313 2.78492188 -0.03515625 1.93359375 C-0.02355469 1.29550781 -0.01195312 0.65742188 0 0 Z " fill="#628FA6" transform="translate(475,227)"/>
<path d="M0 0 C0.33 0 0.66 0 1 0 C1.03738281 0.7734375 1.07476562 1.546875 1.11328125 2.34375 C1.52220697 8.82241629 2.37217347 14.05882698 5 20 C4.01 20.33 3.02 20.66 2 21 C-0.62096065 14.11997829 -0.18170362 7.27823961 0 0 Z " fill="#A7A69A" transform="translate(235,214)"/>
<path d="M0 0 C0 3 0 3 -1.49609375 4.75390625 C-2.45708984 5.64916016 -2.45708984 5.64916016 -3.4375 6.5625 C-6.0896163 9.00289429 -6.0896163 9.00289429 -8 12 C-10.5625 12.625 -10.5625 12.625 -13 13 C-9.0580583 8.11950075 -4.88049925 3.9419417 0 0 Z " fill="#C5C4B9" transform="translate(216,210)"/>
<path d="M0 0 C0 4.00503984 -1.52994022 6.9301813 -4 10 C-6.75 10.9375 -6.75 10.9375 -9 11 C-7.59155282 7.78475695 -5.89655214 5.67816132 -3.375 3.25 C-2.74335938 2.63640625 -2.11171875 2.0228125 -1.4609375 1.390625 C-0.73777344 0.70226562 -0.73777344 0.70226562 0 0 Z " fill="#061B24" transform="translate(159,171)"/>
<path d="M0 0 C1.15224028 0.92961422 2.29659176 1.8690125 3.4375 2.8125 C4.07558594 3.33457031 4.71367187 3.85664063 5.37109375 4.39453125 C7 6 7 6 8 9 C5.69 8.67 3.38 8.34 1 8 C0.67 5.36 0.34 2.72 0 0 Z " fill="#251C13" transform="translate(161,357)"/>
<path d="M0 0 C0.75 1.75 0.75 1.75 1 4 C-0.875 6.125 -0.875 6.125 -3 8 C-3.33 8.66 -3.66 9.32 -4 10 C-6.0625 10.625 -6.0625 10.625 -8 11 C-8 10.34 -8 9.68 -8 9 C-8.66 8.67 -9.32 8.34 -10 8 C-9.16855469 7.51080078 -9.16855469 7.51080078 -8.3203125 7.01171875 C-7.23363281 6.35623047 -7.23363281 6.35623047 -6.125 5.6875 C-5.40570313 5.25824219 -4.68640625 4.82898438 -3.9453125 4.38671875 C-1.73153667 2.98247625 -1.73153667 2.98247625 0 0 Z " fill="#9FBDB2" transform="translate(253,332)"/>
<path d="M0 0 C0.33 0 0.66 0 1 0 C1.41733821 6.05140408 1.10415132 9.17158669 -3 14 C-3.66 14 -4.32 14 -5 14 C-3.46527032 9.27775484 -1.76054874 4.64144669 0 0 Z " fill="#1F536C" transform="translate(387,320)"/>
<path d="M0 0 C0.66 0.33 1.32 0.66 2 1 C0.15172888 3.77240667 -1.47445044 5.84585479 -4 8 C-5.32 8 -6.64 8 -8 8 C-7.34 6.02 -6.68 4.04 -6 2 C-5.34 2.33 -4.68 2.66 -4 3 C-3.67 2.67 -3.34 2.34 -3 2 C-2.01 2 -1.02 2 0 2 C0 1.34 0 0.68 0 0 Z " fill="#080705" transform="translate(241,175)"/>
<path d="M0 0 C3.875 0.875 3.875 0.875 5 2 C6.99958364 2.04080783 9.00045254 2.04254356 11 2 C11.33 3.65 11.66 5.3 12 7 C7.76570244 5.68938409 3.92592596 4.05643741 0 2 C0 1.34 0 0.68 0 0 Z " fill="#1C506A" transform="translate(314,143)"/>
<path d="M0 0 C0.33 0 0.66 0 1 0 C1.38281159 5.23175837 0.21854707 8.37802694 -2 13 C-2.99 13 -3.98 13 -5 13 C-4.54554036 11.58208592 -4.08625056 10.16571954 -3.625 8.75 C-3.24214844 7.56664062 -3.24214844 7.56664062 -2.8515625 6.359375 C-2.04826333 4.13372042 -1.10288338 2.09068328 0 0 Z " fill="#041A25" transform="translate(131,210)"/>
<path d="M0 0 C0.99 0.33 1.98 0.66 3 1 C1.625 3 1.625 3 0 5 C-0.66 5 -1.32 5 -2 5 C-2 5.66 -2 6.32 -2 7 C-3.8125 8.0625 -3.8125 8.0625 -6 9 C-6.99 8.67 -7.98 8.34 -9 8 C-8.43410156 7.50628906 -7.86820313 7.01257813 -7.28515625 6.50390625 C-6.55167969 5.86324219 -5.81820312 5.22257813 -5.0625 4.5625 C-4.33160156 3.92441406 -3.60070312 3.28632813 -2.84765625 2.62890625 C-1.87860647 1.77458541 -0.91348825 0.91348825 0 0 Z " fill="#21140D" transform="translate(192,217)"/>
<path d="M0 0 C1.875 0.3125 1.875 0.3125 4 1 C4.66 1.99 5.32 2.98 6 4 C6.66 4.33 7.32 4.66 8 5 C9.1875 6.875 9.1875 6.875 10 9 C9.67 9.99 9.34 10.98 9 12 C7.49707257 10.18992669 5.99772829 8.37687764 4.5 6.5625 C3.6646875 5.55316406 2.829375 4.54382813 1.96875 3.50390625 C0 1 0 1 0 0 Z " fill="#07101A" transform="translate(144,353)"/>
<path d="M0 0 C3.4375 0.8125 3.4375 0.8125 7 2 C7.33 2.99 7.66 3.98 8 5 C10.31 5 12.62 5 15 5 C15 5.33 15 5.66 15 6 C7.36866359 6.76313364 7.36866359 6.76313364 4.06640625 4.921875 C2.4375 3.5625 2.4375 3.5625 0 1 C0 0.67 0 0.34 0 0 Z " fill="#7A9F95" transform="translate(223,325)"/>
<path d="M0 0 C0.66 0.33 1.32 0.66 2 1 C2 1.99 2 2.98 2 4 C0.35178756 5.03013277 -1.31503702 6.03114628 -3 7 C-3 7.66 -3 8.32 -3 9 C-4.32 9.33 -5.64 9.66 -7 10 C-5.33248852 6.05860922 -2.77289351 3.2107188 0 0 Z " fill="#282922" transform="translate(221,272)"/>
<path d="M0 0 C-2.52788007 2.79872437 -4.20411134 4.45773019 -8 5 C-8 3.35 -8 1.7 -8 0 C-2.25 -1.125 -2.25 -1.125 0 0 Z " fill="#F2C9B2" transform="translate(138,261)"/>
<path d="M0 0 C0.66 0 1.32 0 2 0 C1.69381595 3.67420866 1.24228216 4.78135513 -1.5625 7.3125 C-2.366875 7.869375 -3.17125 8.42625 -4 9 C-3.67 6.69 -3.34 4.38 -3 2 C-2.34 2 -1.68 2 -1 2 C-0.67 1.34 -0.34 0.68 0 0 Z " fill="#1A1A16" transform="translate(215,206)"/>
<path d="M0 0 C1.12894876 0.93274109 2.25300876 1.87140122 3.375 2.8125 C4.00148438 3.33457031 4.62796875 3.85664063 5.2734375 4.39453125 C7 6 7 6 9 9 C8.34 9 7.68 9 7 9 C6.67 9.66 6.34 10.32 6 11 C2.90407165 7.4912812 1.25805377 4.50802601 0 0 Z " fill="#36271A" transform="translate(265,158)"/>
<path d="M0 0 C1.125 3.75 1.125 3.75 0 6 C-0.66 6 -1.32 6 -2 6 C-2.33 7.65 -2.66 9.3 -3 11 C-3.99 11 -4.98 11 -6 11 C-4.54955729 6.89041233 -2.48889248 3.56741255 0 0 Z " fill="#638CA2" transform="translate(72,150)"/>
<path d="M0 0 C-0.58265625 0.26554688 -1.1653125 0.53109375 -1.765625 0.8046875 C-4.06174228 2.03302996 -5.80356018 3.40314939 -7.75 5.125 C-8.36359375 5.66382813 -8.9771875 6.20265625 -9.609375 6.7578125 C-10.06828125 7.16773438 -10.5271875 7.57765625 -11 8 C-10.75 5.125 -10.75 5.125 -10 2 C-6.94570883 -0.48868169 -3.80818272 -0.17309921 0 0 Z " fill="#E0BAA2" transform="translate(261,154)"/>
<path d="M0 0 C0 0.99 0 1.98 0 3 C-0.99 3.33 -1.98 3.66 -3 4 C-3.103125 4.639375 -3.20625 5.27875 -3.3125 5.9375 C-3.539375 6.618125 -3.76625 7.29875 -4 8 C-7.0625 9.25 -7.0625 9.25 -10 10 C-3.84965831 2.51708428 -3.84965831 2.51708428 0 0 Z " fill="#332519" transform="translate(167,241)"/>
<path d="M0 0 C1.74325447 2.6148817 2.41587957 4.0053433 3.125 6.9375 C3.29257812 7.60652344 3.46015625 8.27554688 3.6328125 8.96484375 C4 11 4 11 4 15 C3.34 15 2.68 15 2 15 C0.58365167 12.16730334 0.6536995 9.52533562 0.4375 6.375 C0.35371094 5.18648437 0.26992188 3.99796875 0.18359375 2.7734375 C0.12300781 1.85820312 0.06242187 0.94296875 0 0 Z " fill="#051B27" transform="translate(390,234)"/>
<path d="M0 0 C0.33 0.66 0.66 1.32 1 2 C-1.49872182 5.8373228 -4.0843836 9.45960866 -7 13 C-7.33 12.01 -7.66 11.02 -8 10 C-7.34 10 -6.68 10 -6 10 C-5.34 8.02 -4.68 6.04 -4 4 C-3.34 4 -2.68 4 -2 4 C-1.34 2.68 -0.68 1.36 0 0 Z " fill="#061B26" transform="translate(149,182)"/>
<path d="M0 0 C0.99 0 1.98 0 3 0 C3 1.65 3 3.3 3 5 C-2.41538462 8.07692308 -2.41538462 8.07692308 -5.375 7.6875 C-5.91125 7.460625 -6.4475 7.23375 -7 7 C-5.824375 6.6596875 -5.824375 6.6596875 -4.625 6.3125 C-1.78125 5.21875 -1.78125 5.21875 -0.6875 2.375 C-0.460625 1.59125 -0.23375 0.8075 0 0 Z " fill="#C9E3DB" transform="translate(251,271)"/>
<path d="M0 0 C2.74792483 3.40219265 6 7.48464588 6 12 C4.68 11.67 3.36 11.34 2 11 C0.80712589 7.12315913 0 4.08378077 0 0 Z " fill="#051620" transform="translate(377,202)"/>
<path d="M0 0 C-0.66 1.32 -1.32 2.64 -2 4 C-2.66 4 -3.32 4 -4 4 C-4.66 5.32 -5.32 6.64 -6 8 C-6.99 7.34 -7.98 6.68 -9 6 C-7.8803014 4.99406757 -6.7540588 3.9954151 -5.625 3 C-4.68527344 2.1646875 -4.68527344 2.1646875 -3.7265625 1.3125 C-2 0 -2 0 0 0 Z " fill="#291E16" transform="translate(206,206)"/>
<path d="M0 0 C0.99 0.33 1.98 0.66 3 1 C-1.625 6.875 -1.625 6.875 -5 8 C-4.45773019 4.20411134 -2.79872437 2.52788007 0 0 Z " fill="#487D97" transform="translate(103,115)"/>
<path d="M0 0 C1.67542976 0.28604898 3.34385343 0.61781233 5 1 C4 3 4 3 1.93359375 3.8515625 C0.69802734 4.23441406 0.69802734 4.23441406 -0.5625 4.625 C-1.38878906 4.88539063 -2.21507812 5.14578125 -3.06640625 5.4140625 C-3.70449219 5.60742188 -4.34257812 5.80078125 -5 6 C-5.33 5.01 -5.66 4.02 -6 3 C-5.195625 2.690625 -4.39125 2.38125 -3.5625 2.0625 C-1.10919595 1.23664655 -1.10919595 1.23664655 0 0 Z " fill="#588C9E" transform="translate(362,450)"/>
<path d="M0 0 C2 1.8125 2 1.8125 4 4 C4 4.99 4 5.98 4 7 C1.03 6.505 1.03 6.505 -2 6 C-1.125 1.125 -1.125 1.125 0 0 Z " fill="#1E1714" transform="translate(148,340)"/>
<path d="M0 0 C0.66 1.32 1.32 2.64 2 4 C1.34 4 0.68 4 0 4 C0 4.66 0 5.32 0 6 C-2.31 6.66 -4.62 7.32 -7 8 C-6.02133662 6.85373678 -5.04205413 5.70800212 -4.0625 4.5625 C-3.51722656 3.92441406 -2.97195312 3.28632813 -2.41015625 2.62890625 C-1.63204305 1.73008851 -0.84063472 0.84063472 0 0 Z " fill="#312318" transform="translate(182,226)"/>
<path d="M0 0 C0.99 0.33 1.98 0.66 3 1 C2.54917531 2.46067199 2.08906463 3.91848032 1.625 5.375 C1.36976563 6.18710938 1.11453125 6.99921875 0.8515625 7.8359375 C0 10 0 10 -2 12 C-2.33 10.35 -2.66 8.7 -3 7 C-2.34 6.67 -1.68 6.34 -1 6 C-1.0309375 4.7934375 -1.0309375 4.7934375 -1.0625 3.5625 C-1 1 -1 1 0 0 Z " fill="#444646" transform="translate(137,219)"/>
<path d="M0 0 C1.98 0 3.96 0 6 0 C6.33 0.99 6.66 1.98 7 3 C8.98 3 10.96 3 13 3 C13 3.99 13 4.98 13 6 C3.40546697 3.10933941 3.40546697 3.10933941 0 0 Z " fill="#6C93AB" transform="translate(151,452)"/>
<path d="M0 0 C1.98 0.99 1.98 0.99 4 2 C4 2.66 4 3.32 4 4 C4.66 4 5.32 4 6 4 C5.67 5.32 5.34 6.64 5 8 C5.66 8.33 6.32 8.66 7 9 C6.01 9 5.02 9 4 9 C0 2.25 0 2.25 0 0 Z " fill="#5D8DA4" transform="translate(61,367)"/>
<path d="M0 0 C3.125 0.375 3.125 0.375 6 1 C3 3 3 3 1 3 C1 3.66 1 4.32 1 5 C0.34 5 -0.32 5 -1 5 C-1.33 5.66 -1.66 6.32 -2 7 C-2.125 4.625 -2.125 4.625 -2 2 C-1.34 1.34 -0.68 0.68 0 0 Z " fill="#18231F" transform="translate(250,281)"/>
<path d="M0 0 C0.66 0 1.32 0 2 0 C2 0.66 2 1.32 2 2 C2.66 2 3.32 2 4 2 C4 2.66 4 3.32 4 4 C1.69 5.32 -0.62 6.64 -3 8 C-3.33 7.34 -3.66 6.68 -4 6 C-3.01 6 -2.02 6 -1 6 C-0.67 4.02 -0.34 2.04 0 0 Z " fill="#52819B" transform="translate(400,425)"/>
<path d="M0 0 C0.66 0 1.32 0 2 0 C2.28571429 7.42857143 2.28571429 7.42857143 0 11 C-0.99 10.67 -1.98 10.34 -3 10 C-2.34 9.67 -1.68 9.34 -1 9 C-0.53348793 6.87423218 -0.53348793 6.87423218 -0.375 4.4375 C-0.30023438 3.61121094 -0.22546875 2.78492188 -0.1484375 1.93359375 C-0.09945313 1.29550781 -0.05046875 0.65742188 0 0 Z " fill="#43758F" transform="translate(477,288)"/>
<path d="M0 0 C1.32 0.33 2.64 0.66 4 1 C2.625 2.5 2.625 2.5 1 4 C0.34 4 -0.32 4 -1 4 C-1.33 5.32 -1.66 6.64 -2 8 C-2.66 7.67 -3.32 7.34 -4 7 C-3.67 5.68 -3.34 4.36 -3 3 C-2.34 3 -1.68 3 -1 3 C-0.67 2.01 -0.34 1.02 0 0 Z " fill="#F4D4BC" transform="translate(159,200)"/>
<path d="M0 0 C2.4375 0.75 2.4375 0.75 5 2 C5.6875 4 5.6875 4 6 6 C6.66 6.66 7.32 7.32 8 8 C7.34 8.66 6.68 9.32 6 10 C4.99421411 8.71283353 3.99553202 7.42011342 3 6.125 C2.443125 5.40570313 1.88625 4.68640625 1.3125 3.9453125 C0 2 0 2 0 0 Z " fill="#291E13" transform="translate(356,190)"/>
<path d="M0 0 C0.66 0 1.32 0 2 0 C2 0.66 2 1.32 2 2 C2.66 2.33 3.32 2.66 4 3 C2.6875 5 2.6875 5 1 7 C0.01 7 -0.98 7 -2 7 C-1.125 2.25 -1.125 2.25 0 0 Z " fill="#0A080A" transform="translate(150,182)"/>
<path d="M0 0 C0.66 0.33 1.32 0.66 2 1 C0.89300099 4.21029714 -0.01603825 5.00968977 -3 6.8125 C-3.99 7.204375 -4.98 7.59625 -6 8 C-6.66 7.67 -7.32 7.34 -8 7 C-5.36 4.69 -2.72 2.38 0 0 Z " fill="#D1E8E1" transform="translate(241,279)"/>
<path d="M0 0 C2.31 1.98 4.62 3.96 7 6 C4 7 4 7 1 6 C0.67 4.02 0.34 2.04 0 0 Z " fill="#D4AE95" transform="translate(345,256)"/>
<path d="M0 0 C0.33 0.99 0.66 1.98 1 3 C0.34 3 -0.32 3 -1 3 C-0.67 2.01 -0.34 1.02 0 0 Z M-2 3 C-1.34 4.32 -0.68 5.64 0 7 C-0.66 7 -1.32 7 -2 7 C-2.33 7.99 -2.66 8.98 -3 10 C-3.66 9.67 -4.32 9.34 -5 9 C-4.625 6.5625 -4.625 6.5625 -4 4 C-3.34 3.67 -2.68 3.34 -2 3 Z " fill="#08090B" transform="translate(145,190)"/>
<path d="M0 0 C0.99 0 1.98 0 3 0 C2.67 0.99 2.34 1.98 2 3 C1.34 3 0.68 3 0 3 C0.33 4.98 0.66 6.96 1 9 C-0.32 9.33 -1.64 9.66 -3 10 C-2.39009109 6.44219804 -1.4216319 3.3171411 0 0 Z " fill="#6B94A9" transform="translate(52,185)"/>
<path d="M0 0 C2.02054804 1.64169528 4.02043058 3.30911778 6 5 C6 5.33 6 5.66 6 6 C1.44615385 6.36923077 1.44615385 6.36923077 -0.8125 4.5 C-1.204375 4.005 -1.59625 3.51 -2 3 C-1.34 2.01 -0.68 1.02 0 0 Z " fill="#CCCABE" transform="translate(267,176)"/>
<path d="M0 0 C0.66 0.33 1.32 0.66 2 1 C0.35 3.64 -1.3 6.28 -3 9 C-3.66 8.67 -4.32 8.34 -5 8 C-5 5 -5 5 -2.5 2.3125 C-1.675 1.549375 -0.85 0.78625 0 0 Z " fill="#36281E" transform="translate(241,170)"/>
<path d="M0 0 C2.97 0.495 2.97 0.495 6 1 C3.3534665 3.6465335 0.43778736 4.59941997 -3 6 C-2.67 4.68 -2.34 3.36 -2 2 C-1.34 2 -0.68 2 0 2 C0 1.34 0 0.68 0 0 Z " fill="#3D3D3E" transform="translate(195,155)"/>
<path d="M0 0 C1.134375 0.020625 2.26875 0.04125 3.4375 0.0625 C1.38327945 2.11672055 0.10740976 2.74387592 -2.5625 3.75 C-3.26375 4.02199219 -3.965 4.29398438 -4.6875 4.57421875 C-6.5625 5.0625 -6.5625 5.0625 -8.5625 4.0625 C-7.923125 3.588125 -7.28375 3.11375 -6.625 2.625 C-3.23491379 0.05675287 -3.23491379 0.05675287 0 0 Z " fill="#1D4F67" transform="translate(206.5625,138.9375)"/>
<path d="M0 0 C0 3.21518097 -0.1621112 4.41024759 -2 7 C-5.125 8.25 -5.125 8.25 -8 9 C-7.04270084 7.87411986 -6.08412105 6.7493285 -5.125 5.625 C-4.59132813 4.99851562 -4.05765625 4.37203125 -3.5078125 3.7265625 C-2.38567993 2.44163349 -1.20628025 1.20628025 0 0 Z " fill="#6291AD" transform="translate(97,121)"/>
<path d="M0 0 C1.98 0.66 3.96 1.32 6 2 C6 1.34 6 0.68 6 0 C6.99 0.33 7.98 0.66 9 1 C6.53721199 3.46278801 4.29323018 3.99771255 1 5 C0.67 3.35 0.34 1.7 0 0 Z " fill="#56849C" transform="translate(370,444)"/>
<path d="M0 0 C0.66 0 1.32 0 2 0 C2 0.99 2 1.98 2 3 C1.34 3 0.68 3 0 3 C0.33 3.99 0.66 4.98 1 6 C0.01 6.495 0.01 6.495 -1 7 C-2.32 5.35 -3.64 3.7 -5 2 C-4.34 1.67 -3.68 1.34 -3 1 C-2.67 1.33 -2.34 1.66 -2 2 C-1.34 1.34 -0.68 0.68 0 0 Z " fill="#457A96" transform="translate(92,403)"/>
<path d="M0 0 C0.33 0.66 0.66 1.32 1 2 C1.66 2 2.32 2 3 2 C1.25 6.875 1.25 6.875 -1 8 C-1.33 5.69 -1.66 3.38 -2 1 C-1.34 0.67 -0.68 0.34 0 0 Z " fill="#39718E" transform="translate(438,386)"/>
<path d="M0 0 C0.33 0.99 0.66 1.98 1 3 C-1.31 5.31 -3.62 7.62 -6 10 C-6.66 9.67 -7.32 9.34 -8 9 C-5.36 6.03 -2.72 3.06 0 0 Z " fill="#312F29" transform="translate(205,325)"/>
<path d="M0 0 C0.75 1.75 0.75 1.75 1 4 C-0.9375 6.25 -0.9375 6.25 -3 8 C-3.99 7.67 -4.98 7.34 -6 7 C-5.34 7 -4.68 7 -4 7 C-3.67 5.68 -3.34 4.36 -3 3 C-2.01 3 -1.02 3 0 3 C0 2.01 0 1.02 0 0 Z " fill="#322317" transform="translate(363,259)"/>
<path d="M0 0 C0.99 0.33 1.98 0.66 3 1 C1.68 2.65 0.36 4.3 -1 6 C-2.32 5.67 -3.64 5.34 -5 5 C-3.35 3.35 -1.7 1.7 0 0 Z " fill="#2D1F15" transform="translate(219,191)"/>
<path d="M0 0 C-0.66 1.65 -1.32 3.3 -2 5 C-2.99 5 -3.98 5 -5 5 C-5.33 4.34 -5.66 3.68 -6 3 C-3.375 0 -3.375 0 0 0 Z " fill="#2B2A28" transform="translate(157,190)"/>
<path d="M0 0 C0 0.66 0 1.32 0 2 C-1.98 2.33 -3.96 2.66 -6 3 C-6 3.66 -6 4.32 -6 5 C-7.98 5.99 -7.98 5.99 -10 7 C-10.66 6.34 -11.32 5.68 -12 5 C-10.37750059 4.16180842 -8.75191503 3.3295884 -7.125 2.5 C-6.22007812 2.0359375 -5.31515625 1.571875 -4.3828125 1.09375 C-2 0 -2 0 0 0 Z " fill="#F9DECC" transform="translate(217,156)"/>
<path d="M0 0 C3 -0.375 3 -0.375 6 0 C6.66 0.99 7.32 1.98 8 3 C4.7 3 1.4 3 -2 3 C-1.34 2.01 -0.68 1.02 0 0 Z " fill="#2D1C11" transform="translate(257,155)"/>
<path d="M0 0 C2.64 0.33 5.28 0.66 8 1 C5.09907498 2.93395001 4.10325263 3.30131941 0.8125 3.625 C-0.445625 3.74875 -1.70375 3.8725 -3 4 C-2.01 3.67 -1.02 3.34 0 3 C0 2.01 0 1.02 0 0 Z " fill="#6F9AAD" transform="translate(312,467)"/>
<path d="M0 0 C0.66 0.99 1.32 1.98 2 3 C1.34 3 0.68 3 0 3 C0 3.66 0 4.32 0 5 C0.66 5 1.32 5 2 5 C1.34 6.32 0.68 7.64 0 9 C0 8.01 0 7.02 0 6 C-0.66 6 -1.32 6 -2 6 C-2.33 4.68 -2.66 3.36 -3 2 C-2.01 2 -1.02 2 0 2 C0 1.34 0 0.68 0 0 Z " fill="#2F6D8D" transform="translate(444,376)"/>
<path d="M0 0 C0.33 0.66 0.66 1.32 1 2 C1.66 2.33 2.32 2.66 3 3 C1.1875 4.5625 1.1875 4.5625 -1 6 C-1.99 5.67 -2.98 5.34 -4 5 C-2.68 3.35 -1.36 1.7 0 0 Z " fill="#82BAAA" transform="translate(241,324)"/>
<path d="M0 0 C2.02054804 1.64169528 4.02043058 3.30911778 6 5 C6 5.33 6 5.66 6 6 C4.02 6 2.04 6 0 6 C0 4.02 0 2.04 0 0 Z " fill="#3B2B21" transform="translate(322,216)"/>
<path d="M0 0 C0.99 0.33 1.98 0.66 3 1 C0.69 3.31 -1.62 5.62 -4 8 C-4.66 7.34 -5.32 6.68 -6 6 C-5.01 5.67 -4.02 5.34 -3 5 C-2.67 4.01 -2.34 3.02 -2 2 C-1.34 2 -0.68 2 0 2 C0 1.34 0 0.68 0 0 Z " fill="#D4B099" transform="translate(230,178)"/>
<path d="M0 0 C0.33 0.66 0.66 1.32 1 2 C2.32 1.67 3.64 1.34 5 1 C4.67 2.98 4.34 4.96 4 7 C2.02 5.35 0.04 3.7 -2 2 C-1.34 1.34 -0.68 0.68 0 0 Z " fill="#2B2A23" transform="translate(275,181)"/>
<path d="M0 0 C0.66 0.33 1.32 0.66 2 1 C0.35 2.98 -1.3 4.96 -3 7 C-3.99 6.34 -4.98 5.68 -6 5 C-4.02 3.35 -2.04 1.7 0 0 Z " fill="#F7D5C1" transform="translate(187,173)"/>
<path d="M0 0 C2.475 0.99 2.475 0.99 5 2 C5 2.66 5 3.32 5 4 C5.66 4 6.32 4 7 4 C6.67 4.99 6.34 5.98 6 7 C1.125 3.375 1.125 3.375 0 0 Z " fill="#1D506C" transform="translate(351,168)"/>
<path d="M0 0 C3.375 0.25 3.375 0.25 7 1 C8.4375 3.0625 8.4375 3.0625 9 5 C5.30581799 5 3.22163822 3.71820705 0 2 C0 1.34 0 0.68 0 0 Z " fill="#ECC3AB" transform="translate(258,152)"/>
<path d="M0 0 C0.33 0.66 0.66 1.32 1 2 C0.67 2.66 0.34 3.32 0 4 C-0.99 4 -1.98 4 -3 4 C-3.66 5.32 -4.32 6.64 -5 8 C-5.99 7.34 -6.98 6.68 -8 6 C-5.36 4.02 -2.72 2.04 0 0 Z " fill="#5588A2" transform="translate(121,101)"/>
<path d="M0 0 C3.45925163 1.2491742 6.14693203 2.67527795 9 5 C6.69 5 4.38 5 2 5 C1.34 3.35 0.68 1.7 0 0 Z " fill="#5C8CA5" transform="translate(373,88)"/>
<path d="M0 0 C0.66 1.32 1.32 2.64 2 4 C1.34 4 0.68 4 0 4 C0 4.66 0 5.32 0 6 C-1.32 6 -2.64 6 -4 6 C-2.84826645 3.53199953 -1.95216435 1.95216435 0 0 Z " fill="#9FBEB3" transform="translate(196,353)"/>
<path d="M0 0 C2.69082872 0.17635452 5.32851446 0.61835921 8 1 C7.67 1.66 7.34 2.32 7 3 C4.125 3.125 4.125 3.125 1 3 C0.34 2.34 -0.32 1.68 -1 1 C-0.67 0.67 -0.34 0.34 0 0 Z " fill="#9DD6C5" transform="translate(229,325)"/>
<path d="M0 0 C0.66 0.33 1.32 0.66 2 1 C1.25 7.625 1.25 7.625 -1 11 C-1.125 3.375 -1.125 3.375 0 0 Z " fill="#53819F" transform="translate(472,317)"/>
<path d="M0 0 C2.31 0 4.62 0 7 0 C6.67 0.99 6.34 1.98 6 3 C3.69 2.67 1.38 2.34 -1 2 C-0.67 1.34 -0.34 0.68 0 0 Z " fill="#DBB69C" transform="translate(156,261)"/>
<path d="M0 0 C1.98 0 3.96 0 6 0 C6 1.98 6 3.96 6 6 C3.97945196 4.35830472 1.97956942 2.69088222 0 1 C0 0.67 0 0.34 0 0 Z " fill="#1D1B19" transform="translate(285,194)"/>
<path d="M0 0 C1.65 1.65 3.3 3.3 5 5 C4.67 5.66 4.34 6.32 4 7 C3.01 7 2.02 7 1 7 C0.67 4.69 0.34 2.38 0 0 Z " fill="#061922" transform="translate(363,182)"/>
<path d="M0 0 C0.99 0.66 1.98 1.32 3 2 C1.35 3.32 -0.3 4.64 -2 6 C-2.33 4.35 -2.66 2.7 -3 1 C-2.01 0.67 -1.02 0.34 0 0 Z " fill="#434241" transform="translate(175,169)"/>
<path d="M0 0 C1.9375 0.6875 1.9375 0.6875 4 2 C4.75 4.625 4.75 4.625 5 7 C2.69 5.35 0.38 3.7 -2 2 C-1.34 1.34 -0.68 0.68 0 0 Z " fill="#33251B" transform="translate(337,169)"/>
<path d="M0 0 C4.41889613 1.35021826 6.34345343 3.26115668 9 7 C6.525 6.01 6.525 6.01 4 5 C4 4.34 4 3.68 4 3 C2.68 2.67 1.36 2.34 0 2 C0 1.34 0 0.68 0 0 Z " fill="#021119" transform="translate(336,158)"/>
<path d="M0 0 C0 1.66666667 0 3.33333333 0 5 C-2 6.625 -2 6.625 -4 8 C-4.66 7.67 -5.32 7.34 -6 7 C-4.02 4.69 -2.04 2.38 0 0 Z " fill="#A0BCB3" transform="translate(191,359)"/>
<path d="M0 0 C1.5625 1.8125 1.5625 1.8125 3 4 C2.67 4.99 2.34 5.98 2 7 C0.35 5.02 -1.3 3.04 -3 1 C-2.01 0.67 -1.02 0.34 0 0 Z " fill="#27231B" transform="translate(324,230)"/>
<path d="M0 0 C1.0625 1.875 1.0625 1.875 2 4 C0.62308038 6.75383923 -1.36720042 7.51483101 -4 9 C-2.80100302 5.9168649 -1.52299523 2.93720508 0 0 Z " fill="#0C090B" transform="translate(133,212)"/>
<path d="M0 0 C1.99097846 2.98646769 2.94124926 5.59687262 4 9 C2.68 8.34 1.36 7.68 0 7 C0 4.69 0 2.38 0 0 Z " fill="#618DA3" transform="translate(461,181)"/>
<path d="M0 0 C2.16874252 0.50603992 3.99967627 0.99983813 6 2 C6.625 4.5625 6.625 4.5625 7 7 C5.83040013 6.02433888 4.66438823 5.044375 3.5 4.0625 C2.8503125 3.51722656 2.200625 2.97195312 1.53125 2.41015625 C1.0259375 1.94480469 0.520625 1.47945312 0 1 C0 0.67 0 0.34 0 0 Z " fill="#CDA692" transform="translate(283,176)"/>
<path d="M0 0 C3.51005335 1.6380249 6.45543849 3.03134491 9 6 C8.01 6.33 7.02 6.66 6 7 C5.67 6.34 5.34 5.68 5 5 C4.154375 4.505 3.30875 4.01 2.4375 3.5 C1.633125 3.005 0.82875 2.51 0 2 C0 1.34 0 0.68 0 0 Z " fill="#6C96AD" transform="translate(385,95)"/>
<path d="M0 0 C0.99 0 1.98 0 3 0 C3 0.99 3 1.98 3 3 C3.66 3.33 4.32 3.66 5 4 C4.01 4.495 4.01 4.495 3 5 C0.375 3.5625 0.375 3.5625 -2 2 C-1.34 1.34 -0.68 0.68 0 0 Z " fill="#4F829D" transform="translate(130,438)"/>
<path d="M0 0 C1.32 0.33 2.64 0.66 4 1 C1.69 2.65 -0.62 4.3 -3 6 C-3 4.68 -3 3.36 -3 2 C-2.01 2 -1.02 2 0 2 C0 1.34 0 0.68 0 0 Z " fill="#061726" transform="translate(348,374)"/>
<path d="M0 0 C1.9375 0.375 1.9375 0.375 4 1 C4.33 1.66 4.66 2.32 5 3 C2.69 3.33 0.38 3.66 -2 4 C-1.34 2.68 -0.68 1.36 0 0 Z " fill="#A0B8B0" transform="translate(212,334)"/>
<path d="M0 0 C0.99 0.495 0.99 0.495 2 1 C2.73075648 3.3140622 3.40138258 5.64828869 4 8 C3.01 8 2.02 8 1 8 C0.67 5.36 0.34 2.72 0 0 Z " fill="#1E506B" transform="translate(129,328)"/>
<path d="M0 0 C0.515625 0.309375 1.03125 0.61875 1.5625 0.9375 C4.66665423 2.29059287 7.65115007 2.61359424 11 3 C11 3.33 11 3.66 11 4 C4.64102564 5.34516765 4.64102564 5.34516765 1.5625 3.6875 C0 2 0 2 0 0 Z " fill="#091B17" transform="translate(225,328)"/>
<path d="M0 0 C2.31 1.98 4.62 3.96 7 6 C3.89448334 6 2.64738916 5.4606285 0 4 C0 2.68 0 1.36 0 0 Z " fill="#1F1108" transform="translate(285,179)"/>
<path d="M0 0 C1.65 0 3.3 0 5 0 C5.66 1.65 6.32 3.3 7 5 C4.11562221 3.70700306 2.12780579 2.34058637 0 0 Z " fill="#3A2C21" transform="translate(324,162)"/>
<path d="M0 0 C3.77545388 1.09068668 6.47043472 1.9083091 9 5 C8.01 5.33 7.02 5.66 6 6 C5.67 5.01 5.34 4.02 5 3 C3.68 3 2.36 3 1 3 C0.67 2.01 0.34 1.02 0 0 Z " fill="#5085A0" transform="translate(363,83)"/>
<path d="M0 0 C-0.66 0 -1.32 0 -2 0 C-2 0.99 -2 1.98 -2 3 C-2.99 3.33 -3.98 3.66 -5 4 C-5 3.34 -5 2.68 -5 2 C-6.32 1.67 -7.64 1.34 -9 1 C-3.375 -1.125 -3.375 -1.125 0 0 Z " fill="#6C96A7" transform="translate(187,71)"/>
</svg>
